<?xml version="1.0" encoding="utf-8"?>
<!-- Generator: Adobe Illustrator 18.0.0, SVG Export Plug-In . SVG Version: 6.00 Build 0)  -->
<!DOCTYPE svg PUBLIC "-//W3C//DTD SVG 1.1//EN" "http://www.w3.org/Graphics/SVG/1.1/DTD/svg11.dtd" [
	<!ENTITY ns_flows "http://ns.adobe.com/Flows/1.0/">
	<!ENTITY ns_extend "http://ns.adobe.com/Extensibility/1.0/">
	<!ENTITY ns_ai "http://ns.adobe.com/AdobeIllustrator/10.0/">
	<!ENTITY ns_graphs "http://ns.adobe.com/Graphs/1.0/">
]>
<svg version="1.1" id="Layer_1" xmlns:x="&ns_extend;" xmlns:i="&ns_ai;" xmlns:graph="&ns_graphs;"
	 xmlns="http://www.w3.org/2000/svg" xmlns:xlink="http://www.w3.org/1999/xlink" xmlns:a="http://ns.adobe.com/AdobeSVGViewerExtensions/3.0/"
	 x="0px" y="0px" viewBox="0 0 1400 980" enable-background="new 0 0 1400 980" xml:space="preserve">
<g>
	<rect fill="#C6D4ED" width="1400" height="980"/>
	<g>
		<ellipse fill="#CDE295" cx="719.2" cy="713.8" rx="616" ry="208"/>
		<path fill="#BB9386" d="M231.9,841c185.5-56,669.2-203.8,883.7-286.4c-33.7-9.6-70.5-17.9-109.7-24.9
			c-288.3,70-736.3,229.3-848.3,269.7C177.5,814.2,202.6,828.2,231.9,841z"/>
		<path fill="#5A4C70" d="M1059.5,540.4c-357.7,78.7-755.2,222.4-884.7,270.8C278.3,877,483.3,921.8,719.2,921.8
			c340.2,0,616-93.1,616-208C1335.2,641.4,1225.7,577.6,1059.5,540.4z"/>
		<g>
			<g>
				<path fill="#A2C070" d="M429.3,353.3c0-9.6,1.9-18.6,5.2-26.4c2.3-5.4,2.9-11.8,1.6-17.8c-1-4.7-1.5-9.7-1.5-14.8
					c0-17.8,6.5-33.5,16.4-43.3c3.4-3.3,5.6-8.2,6.5-13.6c3.8-24.4,20-42.7,39.3-42.6c5.3,0,10.3,1.4,14.9,3.9
					c6.4-8.8,15.3-14.3,25.1-14.3c19.3,0,34.9,21,34.8,46.9c0,3.8-0.4,7.5-1,11c17.6,5.7,30.7,26.9,30.6,52.3c0,9.8-2,18.9-5.4,26.8
					c5,9,7.9,20.1,7.9,32.1c0,16.7-5.7,31.5-14.6,41.4c3.7,8.4,5.7,18.3,5.4,28.9c-0.7,27.7-17.3,50.4-38,51.8
					c-4.1,0.3-8-0.3-11.7-1.5c-7.4,11.5-18.3,18.9-30.5,18.9c-12.2,0-23.1-7.4-30.5-18.9c-3.8,1.2-7.7,1.8-11.8,1.5
					c-20.7-1.6-37.2-24.4-37.7-52.2c-0.1-4,0.2-7.9,0.7-11.6c1.9-13,0.6-26.3-3-38.6C430.3,366.9,429.3,360.2,429.3,353.3z"/>
				<path fill="#B8D87E" d="M469,266c3.9-4.4,6.1-11,6.1-17.8c0,0,0-0.1,0-0.1c0-25.7,13.9-47,32-51.4c0,0,0,0,0,0
					c2.7,1.1,5.6,0.3,7.9-2.1c6.3-6.7,14.4-10.6,23.2-10.1c17.4,1,31.7,19.3,33.3,42.6c0.1,1.5,0.1,2.9,0.1,4.4
					c0,6.2,2.5,11.8,6.6,14.5c13.6,8.6,23,27.2,23,48.7c0,7.1-1,13.8-2.9,20c-1.3,4.4-1,9.3,0.7,13.5c3,7.6,4.8,16.3,4.7,25.5
					c0,13.1-3.5,25.1-9.3,34.4c-2.7,4.4-3.6,10.3-2.2,15.7c1.7,6.3,2.6,13.1,2.4,20.2c-0.7,27.7-17.3,50.4-38,51.8
					c-0.1,0-0.3,0-0.4,0c-7,0.4-13.8,3.1-19.6,8.3c-6.4,5.7-14,9-22.2,9c-10.4,0-19.8-5.3-26.9-14c-2.4-2.9-5.6-4.2-8.8-3.8
					c0,0,0,0-0.1,0c-9.4-10.9-15.4-27-15.4-45c0-3.1,0.2-6.1,0.5-9.1c1.4-12,0.6-24.4-2.8-35.7c-1.8-6.1-2.8-12.7-2.8-19.6
					c0-6,0.8-11.7,2.2-17.1c1.6-6,1.4-12.7-0.8-18.3c-2.9-7.3-4.5-15.6-4.5-24.4C455,289.9,460.5,275.5,469,266z"/>
			</g>
			<polygon fill="#554C40" points="504.6,565.2 527.9,565.3 521.2,409.6 511.6,409.5 			"/>
			<polygon fill="#554C40" points="515.7,425.5 520.4,424.1 498.8,353.9 496.9,354.5 			"/>
			<polygon fill="#554C40" points="516.4,458.6 520,461.8 553.2,421.7 551.7,420.4 			"/>
			<polygon fill="#554C40" points="509.4,477.4 512.8,473.9 474.4,438.8 473,440.2 			"/>
			<polygon fill="#554C40" points="514.6,410 518.2,413.2 534.8,392.1 533.3,390.8 			"/>
		</g>
		<g>
			<g>
				<path fill="#A2C070" d="M728.9,314.2c0-7.6,1.5-14.7,4.1-20.9c1.8-4.3,2.3-9.3,1.3-14.1c-0.8-3.7-1.2-7.7-1.2-11.7
					c0-14.1,5.1-26.6,13-34.3c2.7-2.6,4.4-6.5,5.1-10.8c3-19.3,15.8-33.8,31.1-33.8c4.2,0,8.2,1.1,11.8,3.1c5-7,12.1-11.3,19.9-11.3
					c15.3,0,27.6,16.6,27.6,37.1c0,3-0.3,5.9-0.8,8.7c13.9,4.5,24.3,21.3,24.3,41.4c0,7.7-1.6,15-4.3,21.3
					c3.9,7.1,6.3,15.9,6.3,25.5c0,13.2-4.5,25-11.5,32.8c2.9,6.7,4.5,14.5,4.3,22.9c-0.6,22-13.7,39.9-30.1,41.1
					c-3.2,0.2-6.3-0.2-9.3-1.2c-5.8,9.2-14.5,15-24.2,14.9c-9.7,0-18.3-5.8-24.1-15c-3,1-6.1,1.4-9.4,1.2
					c-16.4-1.2-29.5-19.3-29.9-41.3c-0.1-3.2,0.1-6.2,0.6-9.2c1.5-10.3,0.5-20.9-2.4-30.6C729.6,325,728.9,319.7,728.9,314.2z"/>
				<path fill="#B8D87E" d="M760.4,245c3.1-3.5,4.8-8.7,4.8-14.1c0,0,0-0.1,0-0.1c0-20.3,11-37.2,25.4-40.7c0,0,0,0,0,0
					c2.2,0.8,4.5,0.2,6.2-1.7c5-5.3,11.4-8.4,18.4-8c13.8,0.8,25.2,15.3,26.4,33.8c0.1,1.2,0.1,2.3,0.1,3.4c0,4.9,2,9.4,5.3,11.5
					c10.8,6.8,18.2,21.5,18.2,38.6c0,5.6-0.8,10.9-2.3,15.8c-1,3.5-0.8,7.4,0.5,10.7c2.4,6,3.8,12.9,3.8,20.2
					c0,10.4-2.8,19.9-7.4,27.3c-2.2,3.5-2.9,8.2-1.7,12.4c1.3,5,2,10.4,1.9,16c-0.6,22-13.7,39.9-30.1,41.1c-0.1,0-0.2,0-0.3,0
					c-5.5,0.3-10.9,2.5-15.5,6.6c-5,4.5-11.1,7.1-17.6,7.1c-8.2,0-15.7-4.2-21.3-11.1c-1.9-2.3-4.5-3.3-7-3c0,0,0,0,0,0
					c-7.5-8.6-12.2-21.4-12.2-35.6c0-2.4,0.1-4.8,0.4-7.2c1.1-9.5,0.5-19.4-2.2-28.3c-1.4-4.8-2.2-10-2.2-15.5
					c0-4.7,0.6-9.3,1.7-13.6c1.2-4.8,1.1-10-0.7-14.5c-2.3-5.8-3.6-12.4-3.5-19.3C749.2,264,753.6,252.6,760.4,245z"/>
			</g>
			<polygon fill="#554C40" points="788.6,482.2 807,482.2 801.7,358.8 794.1,358.8 			"/>
			<polygon fill="#554C40" points="797.3,371.4 801,370.3 783.9,314.7 782.4,315.1 			"/>
			<polygon fill="#554C40" points="797.9,397.7 800.8,400.2 827,368.4 825.8,367.4 			"/>
			<polygon fill="#554C40" points="792.3,412.5 795,409.7 764.6,382 763.5,383.1 			"/>
			<polygon fill="#554C40" points="796.5,359.2 799.3,361.7 812.5,344.9 811.3,343.9 			"/>
		</g>
		<path fill="#5A4C70"  a:adobe-blending-mode="multiply" d="M1187.4,639l-209.3-54.6c-2-0.5-4.1-0.4-6,0.4L598.2,738.2
			c-8.6,3.5-7.4,15.9,1.7,17.7l301.4,62.2c2.3,0.5,4.6,0.1,6.6-1.1l281.8-161C1197,651.9,1195.6,641.1,1187.4,639z"/>
		
			<ellipse transform="matrix(0.9668 0.2557 -0.2557 0.9668 223.4255 -90.734)" fill="#5A4C70"  a:adobe-blending-mode="multiply" cx="460.6" cy="813.8" rx="47.8" ry="23"/>
		<path fill="#5A4C70"  a:adobe-blending-mode="multiply" d="M421.5,821.7l-66.6-7.8l-58.2,21.8l67.9,20.9l57.7-31.1
			C423.9,824.4,423.4,821.9,421.5,821.7z"/>
		<path fill="#9ACF8F" d="M371.8,592.2c-0.3-6.7-6.1-11.9-12.8-11.6c-1,0-1.9,0.2-2.8,0.5c0-0.2,0-0.3,0-0.5
			c0-10.4-8.4-18.7-18.7-18.7c-2,0-3.9,0.3-5.7,0.9c-4.2-5.8-11-9.6-18.8-9.6c-8.4,0-15.8,4.5-19.8,11.2c-1.3-0.7-2.7-1.1-4.3-1.1
			c-3.2,0-6,1.7-7.5,4.3c-2-0.7-4.1-1.1-6.2-1.1c-10.3,0-18.6,8.3-18.7,18.5c-0.8-0.2-1.6-0.2-2.4-0.2c-5.6,0.3-9.9,5.1-9.7,10.7
			c0.3,5.6,5.1,9.9,10.7,9.7c0.3,0,0.7-0.1,1-0.1h19.1h10.4H359c0.4,0,0.8,0,1.3,0C367,604.7,372.2,599,371.8,592.2z"/>
		<path fill="#89BA80" d="M588.9,563.9c-0.3-5.7-5.2-10.1-10.9-9.8c-0.8,0-1.6,0.2-2.4,0.4c0-0.1,0-0.3,0-0.4
			c0-8.8-7.1-15.9-15.9-15.9c-1.7,0-3.3,0.3-4.8,0.7c-3.6-4.9-9.4-8.1-15.9-8.1c-7.1,0-13.4,3.8-16.8,9.5c-1.1-0.6-2.3-1-3.7-1
			c-2.7,0-5.1,1.5-6.4,3.7c-1.7-0.6-3.4-0.9-5.3-0.9c-8.7,0-15.8,7-15.9,15.7c-0.7-0.1-1.4-0.2-2.1-0.1c-4.8,0.2-8.4,4.3-8.2,9.1
			c0.2,4.8,4.3,8.4,9.1,8.2c0.3,0,0.6,0,0.9-0.1h16.2h8.8H578c0.4,0,0.7,0,1.1,0C584.8,574.5,589.2,569.6,588.9,563.9z"/>
		<g>
			<g>
				<path fill="#A2C070" d="M64.8,408.9c0-12.6,2.5-24.5,6.8-34.8c3-7.1,3.8-15.5,2.1-23.4c-1.3-6.2-2-12.8-2-19.5
					c0-23.5,8.6-44.2,21.7-57.1c4.4-4.3,7.4-10.8,8.5-18c5-32.2,26.3-56.3,51.8-56.2c7,0,13.6,1.8,19.7,5.2
					c8.4-11.6,20.1-18.9,33.1-18.8c25.4,0,46,27.7,45.9,61.8c0,5-0.5,9.9-1.3,14.6c23.2,7.5,40.5,35.5,40.4,69
					c0,12.9-2.6,25-7.1,35.4c6.6,11.8,10.4,26.5,10.4,42.4c0,22-7.5,41.6-19.2,54.6c4.8,11.1,7.5,24.2,7.1,38.1
					c-0.9,36.5-22.9,66.5-50.1,68.4c-5.4,0.4-10.5-0.3-15.4-2c-9.7,15.2-24.1,24.9-40.2,24.9c-16.1,0-30.5-9.7-40.2-25
					c-5,1.6-10.2,2.3-15.6,1.9C94,568,72.2,537.9,71.5,501.2c-0.1-5.3,0.2-10.4,0.9-15.3c2.4-17.1,0.8-34.7-4-50.9
					C66.1,426.9,64.8,418.1,64.8,408.9z"/>
				<path fill="#B8D87E" d="M117.2,293.7c5.2-5.8,8-14.5,8-23.5c0-0.1,0-0.1,0-0.2c0-33.9,18.3-61.9,42.3-67.7c0,0,0,0,0,0
					c3.6,1.4,7.4,0.3,10.4-2.8c8.3-8.9,19-14,30.6-13.4c23,1.3,41.9,25.5,43.9,56.2c0.1,1.9,0.2,3.8,0.2,5.7
					c0,8.1,3.3,15.6,8.8,19.1c18,11.3,30.4,35.8,30.3,64.2c0,9.3-1.4,18.2-3.8,26.3c-1.7,5.8-1.3,12.3,0.9,17.8
					c4,10,6.3,21.4,6.3,33.6c0,17.3-4.6,33.1-12.3,45.4c-3.6,5.8-4.8,13.6-2.9,20.6c2.2,8.3,3.4,17.3,3.1,26.6
					c-0.9,36.5-22.9,66.5-50.1,68.4c-0.2,0-0.3,0-0.5,0c-9.2,0.5-18.2,4.1-25.9,11c-8.4,7.5-18.5,11.9-29.3,11.9
					c-13.7,0-26.1-7-35.4-18.4c-3.2-3.8-7.4-5.6-11.7-4.9c0,0,0,0-0.1,0c-12.4-14.3-20.3-35.6-20.3-59.3c0-4.1,0.2-8.1,0.7-12
					c1.8-15.9,0.8-32.2-3.7-47.1c-2.4-8-3.7-16.7-3.7-25.9c0-7.9,1-15.5,2.8-22.6c2.1-7.9,1.8-16.7-1.1-24.1
					c-3.8-9.6-5.9-20.6-5.9-32.2C98.7,325.3,105.9,306.4,117.2,293.7z"/>
			</g>
			<polygon fill="#554C40" points="164.1,688.5 194.8,688.5 186,483.1 173.3,483.1 			"/>
			<polygon fill="#554C40" points="178.8,504.1 184.9,502.3 156.4,409.7 153.9,410.5 			"/>
			<polygon fill="#554C40" points="179.6,547.8 184.4,552.1 228.1,499.2 226.1,497.5 			"/>
			<polygon fill="#554C40" points="170.4,572.6 174.9,568 124.2,521.7 122.4,523.6 			"/>
			<polygon fill="#554C40" points="177.3,483.8 182.1,488 204,460.1 202,458.3 			"/>
		</g>
		<path fill="#89BA80" d="M254.4,683.8c-0.3-6.7-6.1-11.9-12.8-11.6c-1,0-1.9,0.2-2.8,0.5c0-0.2,0-0.3,0-0.5
			c0-10.4-8.4-18.7-18.7-18.7c-2,0-3.9,0.3-5.7,0.9c-4.2-5.8-11-9.6-18.8-9.6c-8.4,0-15.8,4.5-19.8,11.2c-1.3-0.7-2.7-1.1-4.3-1.1
			c-3.2,0-6,1.7-7.5,4.3c-2-0.7-4.1-1.1-6.2-1.1c-10.3,0-18.6,8.3-18.7,18.5c-0.8-0.2-1.6-0.2-2.4-0.2c-5.6,0.3-9.9,5.1-9.7,10.7
			c0.3,5.6,5.1,9.9,10.7,9.6c0.3,0,0.7-0.1,1-0.1h19.1h10.4h73.5c0.4,0,0.8,0,1.3,0C249.5,696.3,254.7,690.6,254.4,683.8z"/>
		<g>
			<path fill="#A83A33" d="M392.2,656c0,0-4.8-4.4-0.6-13.9c4.2-9.5,29.1-20.7,29.1-20.7s-0.9-58.8,5.1-67c6-8.1,16.3-10.7,19-1.1
				c2.7,9.6-1.2,74.5-2.5,80.9c-1.3,6.4-30.7,23.2-37.8,27.6C397.3,666.1,392.2,656,392.2,656z"/>
			<path fill="#A83A33" d="M441,636.3c-0.2-1.3-0.3-2.2-0.3-2.2l-35.5,18.5c0,0,0.8,4.1,1.6,7.7C415.4,655.2,435.9,643,441,636.3z"
				/>
			<polygon fill="#010101" points="492.5,819.7 491,824 487.4,824 487.4,819.5 			"/>
			<path fill="#12110C" d="M468.8,825.8l-4,2.4c0,0,0.9,3.1,1.6,4.7c0.7,1.6,5.6,3.6,13.1,2c7.5-1.6,9.8-7.3,9.8-7.3v-3.5l1.6-3.6
				v3.5c0,0,1.8-3.5,3.8-5.5c2-2,0.4-6.9,0.4-6.9L468.8,825.8z"/>
			<path fill="#231F20" d="M478.3,800.2c0,0-0.7,13.6-8.3,18.7c-7.5,5.1-4.9,10-4.9,10s7,7.8,16.8,1.9c9.7-5.8,5.8-11.4,11.4-14.1
				c5.6-2.7-2.7-18.5-2.7-18.5S485.1,793.2,478.3,800.2z"/>
			<g>
				<polygon fill="#010101" points="442.6,804.4 441.4,807 445,809 445,805 				"/>
				<path fill="#12110C" d="M423.4,804.4l-2.4,0.2l1.2,6c0,0,7.8,6.8,17.9,0.8v-3.2l4.6-2.4l0.2,3.2c0,0,5.6-3.2,8.6-3.2
					c3,0,3.8-4.2,3.8-8.8C457.3,792.4,423.4,804.4,423.4,804.4z"/>
				<path fill="#231F20" d="M441.2,786.1c0,0,0.6,8.2-6.2,9.2c-6.8,1-13.6,1.4-14,9.4c0,4.4,11.8,8.8,17.5,4.4
					c5.8-4.4,9.2-5.8,13.4-6.8c4.2-1,6.6-3.2,4.2-14l-0.2-5.4L441.2,786.1z"/>
			</g>
			<path fill="#ED5B6C" d="M427.4,669.2c0,0,11.1,118.2,11.2,119.8c0.1,1.5,8.3,1,15.2,0.1c6.9-0.9,8.6-85.2,8.6-85.2
				s12,89.6,13.7,95.7c1.7,6.1,10.7,5.2,17,1.7c6.3-3.5,14.4-118.2,13.8-128.5C506.3,662.4,427.4,669.2,427.4,669.2z"/>
			<g>
				<g>
					<path fill="#D64D44" d="M495.7,549.9c0,0-36.1-9.1-53.5-3.3c-17.4,5.7-18.5,9.5-16.1,50.1c2.4,40.5,0.8,63.6-1.3,71.6
						c-2.1,8.1,8.4,9.8,8.4,9.8s43.8,22.6,73.9-3c0,0,4.6-3.1-0.1-8.9C502.3,660.4,495.7,549.9,495.7,549.9z"/>
				</g>
			</g>
			<path opacity="0.47" fill="#D64D44" d="M492.7,645.8c0,28.4,1.9,31.8-17.5,37.2c-8.7,2.4-16.8,2.5-23,1.9
				c15.5,3.7,37.5,5.1,54.9-9.8c0,0,4.6-3.1-0.1-8.9c-4.7-5.8-11.3-116.3-11.3-116.3C483.4,551.6,492.7,617.4,492.7,645.8z"/>
			<path fill="#FCC394" d="M388.8,644.2c0,0-5,13.9-0.8,18.4c4.2,4.5,19.5,2.5,21.7-3.3c2.1-5.8,3.6-13.6,0.7-16.1
				C407.4,640.7,395.2,636.8,388.8,644.2z"/>
			<g>
				<g>
					<polygon fill="#7F8387" points="375.3,688.7 375.9,685.9 421.8,696.1 421.2,698.9 375.3,688.7 					"/>
				</g>
				<g>
					<polygon fill="#7F8387" points="371.7,728.1 372.3,725.2 418.2,735.4 417.5,738.3 371.7,728.1 					"/>
				</g>
				<g>
					<polygon fill="#7F8387" points="368.7,763.8 369.4,760.9 415.3,771.1 414.6,774 368.7,763.8 					"/>
				</g>
				<g>
					<g>
						<path fill="#7F8387" d="M411.5,810.1c-1.6-0.1-2.8-1.5-2.7-3.1l0,0c0-0.1,6.9-92.5,12.4-122.6l0,0c0.8-4.4,1.4-7.3,2.5-9.3
							l0,0c3.6-6.2,10.8-9.1,16.9-10.9l0,0c6.2-1.8,11.5-2.2,11.6-2.2l0,0v0c1.6-0.1,3,1,3.2,2.6l0,0c0.1,1.6-1,3-2.6,3.2l0,0
							c0,0-4.9,0.4-10.5,2l0,0c-5.6,1.5-11.5,4.5-13.4,8.1l0,0c-0.3,0.4-1.2,3.4-1.9,7.5l0,0c-0.8,4.2-1.6,9.7-2.4,16l0,0
							c-1.6,12.7-3.3,28.7-4.7,44.4l0,0c-3,31.4-5.2,61.6-5.2,61.6l0,0c-0.1,1.5-1.4,2.7-2.9,2.7l0,0
							C411.6,810.1,411.5,810.1,411.5,810.1L411.5,810.1z"/>
					</g>
				</g>
				<g>
					<path fill="#7F8387" d="M365.2,798.4c-1.6-0.1-2.8-1.5-2.7-3.1l0,0c0-0.1,7-92.5,12.4-122.6l0,0c0.8-4.4,1.4-7.3,2.5-9.3l0,0
						c3.6-6.2,10.8-9.1,16.9-10.9l0,0c6.2-1.8,11.5-2.2,11.6-2.2l0,0c1.6-0.1,3,1,3.2,2.6l0,0c0.1,1.6-1,3-2.6,3.2l0,0
						c0,0-4.9,0.4-10.5,2l0,0c-5.6,1.5-11.5,4.5-13.4,8.1l0,0c-0.3,0.4-1.2,3.4-1.9,7.5l0,0c-0.8,4.2-1.6,9.7-2.4,16l0,0
						c-1.6,12.7-3.3,28.7-4.7,44.4l0,0c-3,31.4-5.2,61.6-5.2,61.6l0,0c-0.1,1.5-1.4,2.7-2.9,2.7l0,0
						C365.3,798.4,365.3,798.4,365.2,798.4L365.2,798.4z"/>
				</g>
				<path fill="#12110C" d="M452.2,661.8L452.2,661.8c-0.1,0-5.4,0.5-11.6,2.2c-2.4,0.7-4.9,1.6-7.3,2.7c1.3,1.1,2.6,2.6,3.3,4.9
					c1.8-0.8,3.7-1.5,5.5-2c5.6-1.6,10.5-2,10.5-2c1.6-0.1,2.8-1.6,2.6-3.2C455.2,662.9,453.8,661.7,452.2,661.8z M406,650.2
					c-0.1,0-5.4,0.5-11.6,2.2c-2.9,0.9-6,2-8.9,3.5c1.8,1,3.8,2.3,5.2,4c1.7-0.8,3.5-1.4,5.3-1.9c5.6-1.6,10.5-2,10.5-2
					c1.6-0.1,2.8-1.6,2.6-3.2C409,651.2,407.6,650,406,650.2z"/>
				<g>
					<path fill="#12110C" d="M304.3,818.4c0,0-3.6-0.9-4.5-0.8c-2.7,0.1-5.4,3.4-6.4,7.9c-1.1,5,0.3,9.5,3.2,10.1
						c0,0,4.3,1.2,4.5,0.7c0-0.1,0.3-1.6,0.7-3.7c0.9-1.3,1.6-3,2-4.8c0.5-2.4,0.5-4.7-0.1-6.5C304.1,819.6,304.3,818.4,304.3,818.4
						z"/>
					<path fill="#231F20" d="M307.7,828.6c-1.1,5-4.4,8.4-7.2,7.8c-2.9-0.6-4.3-5.2-3.2-10.1c1.1-5,4.4-8.4,7.2-7.8
						C307.4,819.1,308.8,823.7,307.7,828.6z"/>
					<path fill="#7F1C24" d="M305.6,828.2c-0.5,2.4-2.1,4-3.5,3.7c-1.4-0.3-2.1-2.5-1.5-4.9c0.5-2.4,2.1-4,3.5-3.7
						C305.5,823.6,306.1,825.8,305.6,828.2z"/>
					
						<ellipse transform="matrix(0.9755 0.2201 -0.2201 0.9755 189.5294 -46.3201)" fill="#BE202E" cx="302.7" cy="827.5" rx="2.1" ry="3.6"/>
					<g>
						
							<ellipse transform="matrix(0.9753 0.2207 -0.2207 0.9753 190.1261 -46.3969)" fill="#BE202E" cx="302.7" cy="827.5" rx="0.7" ry="1.2"/>
						<path fill="#7F1C24" d="M302.9,826.4c-0.1,0-0.2,0-0.2,0c0.3,0.1,0.5,0.7,0.4,1.3c-0.1,0.5-0.4,0.9-0.7,1c0,0,0,0,0,0
							c0.4,0.1,0.8-0.4,0.9-1C303.5,827,303.3,826.5,302.9,826.4z"/>
					</g>
				</g>
				<polygon fill="#999CA2" points="287.5,825 359.6,787.8 422.2,803.1 422.2,812.6 354.5,850.5 287.5,830.1 				"/>
				<g>
					<g>
						<polygon fill="#A87D50" points="294.8,763.2 294.8,823.7 356.7,839 407.7,809.8 407.7,754.5 341.4,743.5 						"/>
					</g>
					<g>
						<path fill="#754D29" d="M407.7,754.5l-66.3-10.9l-0.2,0.1v53.9L372,811c0,0,28.8-15.5,30-19.5c0.7-2.3,3.4-10.2,5.6-16.9
							V754.5z"/>
					</g>
					<g>
						<polygon fill="#C3996B" points="360.9,836.5 359.6,775.6 294.8,763.5 294.8,823.7 356.7,839 						"/>
					</g>
					<g>
						<polygon fill="#8A5E3C" points="356.7,839 407.7,809.8 407.7,754.9 356.7,775.5 						"/>
					</g>
					<g>
						<polygon fill="#C3996B" points="294.3,763.4 325.7,764.9 361,749.2 341.4,742.6 						"/>
					</g>
					<g>
						<polygon fill="#C3996B" points="329.4,764.2 356.7,775.5 407.7,754.9 378.5,746 						"/>
					</g>
				</g>
				<g>
					<g>
						<polygon fill="#A87D50" points="294.8,700.6 294.8,761 356.7,776.3 407.7,747.2 407.7,691.8 341.4,680.9 						"/>
					</g>
					<g>
						<path fill="#754D29" d="M407.7,691.8l-66.3-10.9l-0.2,0.1v53.9l30.8,13.5c0,0,28.8-15.5,30-19.5c0.7-2.3,3.4-10.2,5.6-16.9
							V691.8z"/>
					</g>
					<g>
						<polygon fill="#C3996B" points="360.9,773.9 359.6,713 294.8,700.9 294.8,761 356.7,776.3 						"/>
					</g>
					<g>
						<polygon fill="#8A5E3C" points="356.7,776.3 407.7,747.2 407.7,692.3 356.7,712.8 						"/>
					</g>
					<g>
						<polygon fill="#C3996B" points="294.3,700.8 325.7,702.3 361,686.6 341.4,679.9 						"/>
					</g>
					<g>
						<polygon fill="#C3996B" points="329.4,701.5 356.7,712.8 407.7,692.3 378.5,683.3 						"/>
					</g>
				</g>
				<polygon fill="#676B6F" points="354.9,844.7 287.5,825 287.5,830.1 354.5,850.5 356.7,845.4 				"/>
				<polygon fill="#72777B" points="354.5,850.5 354.5,850.5 422.2,812.6 422.2,803.3 354.9,844.7 				"/>
				<g>
					<path fill="#12110C" d="M375.8,836.7c0,0-3.6-0.9-4.5-0.8c-2.7,0.1-5.4,3.4-6.4,7.9c-1.1,5,0.3,9.5,3.2,10.1
						c0,0,4.3,1.2,4.5,0.7c0.1-0.1,0.3-1.6,0.7-3.7c0.9-1.3,1.6-3,2-4.8c0.5-2.4,0.5-4.7-0.1-6.5
						C375.6,837.9,375.8,836.7,375.8,836.7z"/>
					
						<ellipse transform="matrix(0.9755 0.22 -0.22 0.9755 195.1874 -61.5541)" fill="#231F20" cx="374" cy="845.8" rx="5.4" ry="9.2"/>
					<path fill="#7F1C24" d="M377.1,846.5c-0.5,2.4-2.1,4-3.5,3.7c-1.4-0.3-2.1-2.5-1.5-4.9c0.5-2.4,2.1-4,3.5-3.7
						C377,841.9,377.7,844.1,377.1,846.5z"/>
					
						<ellipse transform="matrix(0.9755 0.2201 -0.2201 0.9755 195.312 -61.6117)" fill="#BE202E" cx="374.2" cy="845.8" rx="2.1" ry="3.6"/>
					<g>
						
							<ellipse transform="matrix(0.9753 0.2209 -0.2209 0.9753 196.0891 -61.7643)" fill="#BE202E" cx="374.2" cy="845.8" rx="0.7" ry="1.2"/>
						<path fill="#7F1C24" d="M374.4,844.7c-0.1,0-0.2,0-0.2,0c0.3,0.1,0.5,0.7,0.4,1.3c-0.1,0.5-0.4,0.9-0.7,1c0,0,0,0,0,0
							c0.4,0.1,0.8-0.4,0.9-1C375,845.3,374.8,844.8,374.4,844.7z"/>
					</g>
				</g>
				<g>
					<path fill="#12110C" d="M414.7,813.2c0,0-3.6-0.9-4.5-0.8c-2.7,0.1-5.4,3.4-6.4,7.9c-1.1,5,0.3,9.5,3.2,10.2
						c0,0,4.3,1.2,4.5,0.7c0-0.1,0.3-1.6,0.7-3.7c0.9-1.3,1.6-3,2-4.8c0.5-2.4,0.5-4.7-0.1-6.5C414.5,814.4,414.7,813.2,414.7,813.2
						z"/>
					
						<ellipse transform="matrix(0.9755 0.2199 -0.2199 0.9755 190.9422 -70.6647)" fill="#231F20" cx="412.8" cy="822.2" rx="5.4" ry="9.2"/>
					
						<ellipse transform="matrix(0.9755 0.2198 -0.2198 0.9755 190.9084 -70.7739)" fill="#7F1C24" cx="413.4" cy="822.4" rx="2.6" ry="4.4"/>
					
						<ellipse transform="matrix(0.9755 0.2201 -0.2201 0.9755 191.0845 -70.7324)" fill="#BE202E" cx="413" cy="822.3" rx="2.1" ry="3.6"/>
					<g>
						
							<ellipse transform="matrix(0.9753 0.2208 -0.2208 0.9753 191.729 -70.8921)" fill="#BE202E" cx="413" cy="822.3" rx="0.7" ry="1.2"/>
						<path fill="#7F1C24" d="M413.3,821.1c-0.1,0-0.2,0-0.2,0c0.3,0.1,0.5,0.7,0.4,1.3c-0.1,0.5-0.4,0.9-0.7,1c0,0,0,0,0,0
							c0.4,0.1,0.8-0.4,0.9-1C413.8,821.8,413.6,821.2,413.3,821.1z"/>
					</g>
				</g>
			</g>
			<linearGradient id="SVGID_1_" gradientUnits="userSpaceOnUse" x1="403.0069" y1="653.2537" x2="402.1731" y2="660.7517">
				<stop  offset="0" style="stop-color:#FCC394"/>
				<stop  offset="1" style="stop-color:#E1A868"/>
				<a:midPointStop  offset="0" style="stop-color:#FCC394"/>
				<a:midPointStop  offset="0.5" style="stop-color:#FCC394"/>
				<a:midPointStop  offset="1" style="stop-color:#E1A868"/>
			</linearGradient>
			<path fill="url(#SVGID_1_)" d="M394,661.4c0,0,1.1-6.2,3-7.9c1.9-1.7,11.7-3.3,13.2-1c1.5,2.4,0.5,6.4-2.3,9.5
				C405.2,665.2,392.6,666.3,394,661.4z"/>
			<path fill="#A83A33" d="M433,663.9c0,0-1.6-5.7,5.4-10.5c7.1-4.8,49.4-14.6,49.4-14.6s-12.5-64.4-7.2-76.9
				c5.3-12.5,16.5-14.6,22.2,2.1c5.8,16.7,14.1,76,10.9,87.9c-3.2,11.9-52.5,27.5-63.8,28.1C438.8,680.6,432,676.2,433,663.9z"/>
			<path fill="#FCC394" d="M430.6,673c-5.1,4.7,4,4,4,4s11.7,0.7,17.5-5.8c5.8-6.6,1.5-16-4.7-18.2c-6.2-2.2-18.2,4-18.2,6.9
				c-1.8,2.5-1.1,7.6-0.7,7.7C431.6,664.3,439.6,669.7,430.6,673z"/>
			<path fill="#FCC394" d="M388.6,651.3c0,0,0.4,6.1,2.7,7.5c2.4,1.4,10.4,0.6,11.4-0.7c1.1-1.3-2.1-2.5-4.9-3.3
				c-2.7-0.8,6.2-1.8,6.4-6.8C404.6,643,389.4,638.2,388.6,651.3z"/>
			<linearGradient id="SVGID_2_" gradientUnits="userSpaceOnUse" x1="439.6303" y1="677.298" x2="442.5441" y2="668.5567">
				<stop  offset="0" style="stop-color:#FCC394"/>
				<stop  offset="1" style="stop-color:#E1A868"/>
				<a:midPointStop  offset="0" style="stop-color:#FCC394"/>
				<a:midPointStop  offset="0.5" style="stop-color:#FCC394"/>
				<a:midPointStop  offset="1" style="stop-color:#E1A868"/>
			</linearGradient>
			<path fill="url(#SVGID_2_)" d="M434.5,668.5c0.6,1.3-0.1,3.1-3.9,4.5c-5.1,4.7,4,4,4,4s11.7,0.7,17.5-5.8c0.9-1,1.6-2.2,2-3.3
				C446.7,668.4,437.8,668.5,434.5,668.5z"/>
			<path fill="#A83A33" d="M447.4,548.2l-1.3,11.8c0,0,6.2-5.1,7.9-7.1c1.7-1.9,1.5-4.7,1.5-4.7H447.4z"/>
			<g>
				<path fill="#FBB37A" d="M453.3,546.5v7.3l6.1,4.4c0,0,13.8-4.9,13.8-9.5c0-4.6,0-8.7,0-8.7L453.3,546.5z"/>
			</g>
			<g>
				<path fill="#A83A33" d="M468.1,547.9l1.6,12.9c0,0,8.6-11.5,8.6-14.2s-2.9-6.6-2.9-6.6L468.1,547.9z"/>
			</g>
			<g>
				<path fill="#231F20" d="M433.4,510.1c0,0-3.6-2.7-3.9-8.3c-0.2-5.6,2.4-6.6,2.4-6.6s-6.6-9.7-0.7-15.5
					c5.8-5.8,10.2-4.6,10.2-4.6l-2.4,2.7c0,0,38.1-10.9,44.7,6.3c0,0,7.5,0.5,7.8,9c0.2,8.5,2.2,29.1-11.7,34
					C465.9,531.9,433.4,510.1,433.4,510.1z"/>
			</g>
			<g>
				<path fill="#FCC394" d="M479,512.9c-0.4,0-0.9,0.1-1.3,0.2v-11.3c0-12-9.7-12.9-21.7-12.9c-12,0-21.7,1-21.7,12.9v29.1
					c0,12,9.7,21.7,21.7,21.7c11.5,0,20.9-9,21.6-20.3c0.4,0.1,0.9,0.2,1.3,0.2c2.3,0,4.2-1.9,4.2-4.2V517
					C483.2,514.7,481.3,512.9,479,512.9z"/>
			</g>
			<g>
				<path fill="#231F20" d="M463.5,518.4c0,1.7-0.8,3-1.8,3c-1,0-1.8-1.4-1.8-3c0-1.7,0.8-3,1.8-3
					C462.7,515.4,463.5,516.8,463.5,518.4z"/>
			</g>
			<g>
				<path fill="#231F20" d="M445.3,518.4c0,1.7-0.8,3-1.8,3c-1,0-1.8-1.4-1.8-3c0-1.7,0.8-3,1.8-3
					C444.5,515.4,445.3,516.8,445.3,518.4z"/>
			</g>
			<g>
				<path fill="#231F20" d="M444.6,536.2L444.6,536.2c-0.1-0.4,0.1-0.8,0.5-0.9l0,0c0.4-0.1,0.8,0.1,0.9,0.5l0,0c0,0,1.2,5,7.8,5
					l0,0c6.6,0,10.6-5.5,10.6-5.5l0,0c0.2-0.3,0.7-0.4,1-0.2l0,0c0.3,0.2,0.4,0.7,0.2,1l0,0c-0.1,0.1-4.3,6.1-11.8,6.1l0,0
					C446.3,542.4,444.6,536.3,444.6,536.2L444.6,536.2z"/>
			</g>
			<g>
				<path fill="#231F20" d="M458.3,509c-0.2-0.3-0.1-0.8,0.2-1l0,0c0.1,0,1.9-1.1,4.2-1.2l0,0c1,0,2.1,0.2,3.2,0.9l0,0
					c0.3,0.2,0.4,0.7,0.2,1l0,0c-0.2,0.3-0.7,0.4-1,0.2l0,0c-0.8-0.5-1.6-0.7-2.4-0.7l0,0c-1.8,0-3.4,0.9-3.4,1l0,0
					c-0.1,0.1-0.3,0.1-0.4,0.1l0,0C458.7,509.3,458.4,509.2,458.3,509L458.3,509z"/>
			</g>
			<g>
				<path fill="#231F20" d="M440.3,509c-0.2-0.3-0.1-0.8,0.2-1l0,0c0.1,0,1.9-1.1,4.2-1.2l0,0c1,0,2.1,0.2,3.2,0.9l0,0
					c0.3,0.2,0.4,0.7,0.2,1l0,0c-0.2,0.3-0.7,0.4-1,0.2l0,0c-0.8-0.5-1.6-0.7-2.4-0.7l0,0c-1.8,0-3.4,0.9-3.4,1l0,0h0
					c-0.1,0.1-0.3,0.1-0.4,0.1l0,0C440.7,509.3,440.4,509.2,440.3,509L440.3,509z"/>
			</g>
			<g>
				<path fill="#231F20" d="M435.8,494l-2.4,5.3c0,0,10.7-5.6,18.5-6.6c7.8-1,7.8-1,7.8-1l-2.2,2.2c0,0,13.6-1.2,19.2,0
					c5.6,1.2,3.2-4.9,1.9-5.6c-1.2-0.7-19.4-6.3-22.3-6.1c-2.9,0.2-7.3,0.5-10.4,1.7C442.6,485.3,435.1,487.5,435.8,494z"/>
			</g>
		</g>
		<g>
			<path fill="#FFFFFF" stroke="#231F20" d="M688.7,662.3c-8.1,35.7-31.4,60.9-52.2,56.2c-20.8-4.7-31.1-37.4-23.1-73.2
				c8.1-35.7,31.4-60.9,52.2-56.2C686.4,593.8,696.7,626.6,688.7,662.3z"/>
			<path fill="#231F20" d="M1195.6,560.9c0,0,14.5-1.6,16.7,5c2.2,6.6,3.1,23.6,0.1,31.7c-3,8.2-9.9,7.5-17.6,4.4
				c-7.7-3-3.7-10.8-3.7-10.8L1195.6,560.9z"/>
			<g>
				<path fill="#12110C" d="M962.8,660.1c0,0-26.3-6.3-32.1-5.7c-19.2,0.6-39.1,24.3-46.4,56.7c-8.1,35.7,2.3,68.5,23.1,73.2
					c0,0,31.2,8.4,32.5,5.3c0.4-0.9,2.3-11.6,5-26.5c6.5-9.4,11.7-21.4,14.7-34.9c3.9-17.4,3.5-34-0.4-47.1
					C961.4,668.5,962.8,660.1,962.8,660.1z"/>
				<g  a:adobe-knockout="true">
					<g  a:adobe-knockout="false">
						<path fill="#6E6B68" d="M901.2,779.6c-10.3-7.8-16.3-24.5-16.3-44.2l0,0c0-7.4,0.9-15.3,2.6-23.4l0,0
							c7.1-31.7,26.2-54.9,44.9-55.6l0,0v0c0.2,0,0.4,0.1,0.4,0.3l0,0c0,0.2-0.2,0.4-0.4,0.4l0,0c-18.1,0.5-37.2,23.5-44.2,55l0,0
							c-1.8,8-2.6,15.8-2.6,23.2l0,0c0,19.6,6,36.1,16,43.7l0,0c0.2,0.1,0.2,0.3,0.1,0.5l0,0c-0.1,0.1-0.2,0.1-0.3,0.1l0,0
							C901.3,779.6,901.2,779.6,901.2,779.6L901.2,779.6z"/>
					</g>
					<g  a:adobe-knockout="false">
						<path fill="#6E6B68" d="M906.3,781.3c-10.3-7.9-16.3-24.7-16.3-44.7l0,0c0-7.5,0.8-15.5,2.6-23.6l0,0
							c7.1-32,26.2-55.5,44.9-56.2l0,0c0.2,0,0.4,0.1,0.4,0.4l0,0c0,0.2-0.2,0.4-0.3,0.4l0,0c-18.1,0.6-37.2,23.7-44.2,55.6l0,0
							c-1.8,8.1-2.6,16-2.6,23.5l0,0c0,19.8,6,36.4,16,44.1l0,0c0.2,0.1,0.2,0.4,0.1,0.5l0,0c-0.1,0.1-0.2,0.1-0.3,0.1l0,0
							C906.4,781.4,906.3,781.3,906.3,781.3L906.3,781.3z"/>
					</g>
					<g  a:adobe-knockout="false">
						<path fill="#6E6B68" d="M911.4,783c-10.3-8-16.3-24.9-16.3-45.1l0,0c0-7.6,0.8-15.6,2.6-23.9l0,0c7.1-32.3,26.2-56,44.9-56.7
							l0,0c0.2,0,0.4,0.2,0.4,0.4l0,0c0,0.2-0.2,0.4-0.4,0.4l0,0c-18.1,0.6-37.2,24-44.2,56.1l0,0c-1.8,8.2-2.6,16.2-2.6,23.7l0,0
							c0,20,6,36.8,16,44.5l0,0c0.2,0.1,0.2,0.4,0.1,0.5l0,0c-0.1,0.1-0.2,0.1-0.3,0.1l0,0C911.5,783.1,911.4,783.1,911.4,783
							L911.4,783z"/>
					</g>
					<g  a:adobe-knockout="false">
						<path fill="#6E6B68" d="M916.5,784.7c-10.3-8.1-16.3-25.2-16.3-45.6l0,0c0-7.7,0.8-15.8,2.6-24.1l0,0
							c7.1-32.6,26.2-56.6,44.9-57.3l0,0v0c0.2,0,0.4,0.1,0.4,0.3l0,0c0,0.2-0.2,0.4-0.3,0.4l0,0c-18.1,0.6-37.2,24.2-44.2,56.7l0,0
							c-1.8,8.2-2.6,16.3-2.6,23.9l0,0c0,20.2,6,37.2,16,45l0,0c0.2,0.1,0.2,0.4,0.1,0.5l0,0c-0.1,0.1-0.2,0.1-0.3,0.1l0,0
							C916.6,784.8,916.5,784.8,916.5,784.7L916.5,784.7z"/>
					</g>
					<g  a:adobe-knockout="false">
						<path fill="#6E6B68" d="M921.6,786.5c-10.3-8.1-16.3-25.4-16.3-46l0,0c0-7.7,0.8-16,2.6-24.3l0,0
							c7.1-32.9,26.2-57.1,44.9-57.8l0,0l0,0c0.2,0,0.4,0.1,0.4,0.3l0,0c0,0.2-0.2,0.4-0.4,0.4l0,0c-18.1,0.6-37.2,24.5-44.2,57.3
							l0,0c-1.8,8.3-2.6,16.5-2.6,24.2l0,0c0,20.4,6,37.5,16,45.4l0,0c0.2,0.1,0.2,0.3,0.1,0.5l0,0c-0.1,0.1-0.2,0.1-0.3,0.1l0,0
							C921.7,786.5,921.6,786.5,921.6,786.5L921.6,786.5z"/>
					</g>
				</g>
				
					<ellipse transform="matrix(0.9755 0.2199 -0.2199 0.9755 182.7426 -191.1038)" fill="#231F20" cx="949.7" cy="725.2" rx="38.6" ry="66.3"/>
				
					<ellipse transform="matrix(0.9755 0.2198 -0.2198 0.9755 183.0011 -191.964)" fill="#72777B" cx="954" cy="726.3" rx="18.5" ry="31.8"/>
				<path fill="#97A0A3" d="M965.8,728.9c-3.2,14.1-12.5,24.1-20.7,22.2c-8.2-1.9-12.3-14.8-9.1-29c3.2-14.1,12.4-24.1,20.7-22.2
					C964.9,701.8,969,714.8,965.8,728.9z"/>
				<g>
					<path fill="#BE202E" d="M955.7,726.7c-1,4.5-4,7.7-6.6,7.1c-2.6-0.6-3.9-4.7-2.9-9.2c1-4.5,4-7.7,6.6-7.1
						C955.4,718,956.7,722.1,955.7,726.7z"/>
					<path fill="#7F1C24" d="M952.7,717.4c-0.5-0.1-1.1,0-1.6,0.1c2.4,0.8,3.6,4.8,2.6,9.1c-0.8,3.6-2.8,6.3-5,7
						c0.1,0,0.2,0.1,0.3,0.1c2.6,0.6,5.6-2.6,6.6-7.1C956.7,722.1,955.4,718,952.7,717.4z"/>
				</g>
				<g>
					
						<ellipse transform="matrix(0.9756 0.2197 -0.2197 0.9756 179.4836 -191.5365)" fill="#72777B" cx="950.9" cy="711.2" rx="2.5" ry="4.2"/>
					<path fill="#231F20" d="M951.8,707.1c-0.3-0.1-0.6,0-0.8,0.1c1.2,0.4,1.8,2.4,1.3,4.6c-0.4,1.8-1.4,3.2-2.5,3.5
						c0.1,0,0.1,0.1,0.2,0.1c1.3,0.3,2.8-1.3,3.3-3.6C953.8,709.5,953.2,707.4,951.8,707.1z"/>
				</g>
				<g>
					
						<ellipse transform="matrix(0.9755 0.2199 -0.2199 0.9755 180.4261 -193.4322)" fill="#72777B" cx="959.1" cy="713.8" rx="2.5" ry="4.2"/>
					<path fill="#231F20" d="M960.1,709.7c-0.3-0.1-0.6,0-0.8,0.1c1.2,0.4,1.8,2.4,1.3,4.6c-0.4,1.8-1.4,3.2-2.5,3.5
						c0.1,0,0.1,0.1,0.2,0.1c1.3,0.3,2.8-1.3,3.3-3.6C962.1,712,961.4,710,960.1,709.7z"/>
				</g>
				<g>
					
						<ellipse transform="matrix(0.9755 0.2199 -0.2199 0.9755 183.2148 -193.6681)" fill="#72777B" cx="961.6" cy="726.2" rx="2.5" ry="4.2"/>
					<path fill="#231F20" d="M962.5,722c-0.3-0.1-0.6,0-0.8,0.1c1.2,0.4,1.8,2.4,1.3,4.6c-0.4,1.8-1.4,3.2-2.5,3.5
						c0.1,0,0.1,0.1,0.2,0.1c1.3,0.3,2.8-1.3,3.3-3.6C964.5,724.4,963.8,722.3,962.5,722z"/>
				</g>
				<g>
					
						<ellipse transform="matrix(0.9755 0.2198 -0.2198 0.9755 185.8072 -192.0906)" fill="#72777B" cx="956.2" cy="739" rx="2.5" ry="4.2"/>
					<path fill="#231F20" d="M957.2,734.9c-0.3-0.1-0.6,0-0.8,0.1c1.2,0.4,1.8,2.4,1.3,4.6c-0.4,1.8-1.4,3.2-2.5,3.5
						c0.1,0,0.1,0.1,0.2,0.1c1.3,0.3,2.8-1.3,3.3-3.6C959.1,737.3,958.5,735.2,957.2,734.9z"/>
				</g>
				<g>
					
						<ellipse transform="matrix(0.9756 0.2197 -0.2197 0.9756 186.2798 -189.6963)" fill="#72777B" cx="946" cy="742.7" rx="2.5" ry="4.2"/>
					<path fill="#231F20" d="M947,738.5c-0.3-0.1-0.6,0-0.8,0.1c1.2,0.4,1.8,2.4,1.3,4.6c-0.4,1.8-1.4,3.2-2.5,3.5
						c0.1,0,0.1,0.1,0.2,0.1c1.3,0.3,2.8-1.3,3.3-3.6C948.9,740.9,948.3,738.8,947,738.5z"/>
				</g>
				<g>
					
						<ellipse transform="matrix(0.9755 0.2199 -0.2199 0.9755 183.9776 -188.9283)" fill="#72777B" cx="940.7" cy="732" rx="2.5" ry="4.2"/>
					<path fill="#231F20" d="M941.6,727.9c-0.3-0.1-0.6,0-0.8,0.1c1.2,0.4,1.8,2.4,1.3,4.6c-0.4,1.8-1.4,3.2-2.5,3.5
						c0.1,0,0.1,0.1,0.2,0.1c1.3,0.3,2.8-1.3,3.3-3.6C943.6,730.3,942.9,728.2,941.6,727.9z"/>
				</g>
				<g>
					
						<ellipse transform="matrix(0.9755 0.2199 -0.2199 0.9755 181.0938 -189.735)" fill="#72777B" cx="942.9" cy="718.6" rx="2.5" ry="4.2"/>
					<path fill="#231F20" d="M943.8,714.5c-0.3-0.1-0.6,0-0.8,0.1c1.2,0.4,1.8,2.4,1.3,4.6c-0.4,1.8-1.4,3.2-2.5,3.5
						c0.1,0,0.1,0.1,0.2,0.1c1.3,0.3,2.8-1.3,3.3-3.6C945.8,716.9,945.1,714.8,943.8,714.5z"/>
				</g>
			</g>
			<g>
				<path fill="#12110C" d="M698.1,591.3c0,0-26.3-6.3-32.1-5.7c-19.2,0.6-39.1,24.3-46.4,56.7c-8.1,35.7,2.3,68.5,23.1,73.2
					c0,0,31.2,8.4,32.5,5.3c0.4-0.9,2.3-11.6,5-26.5c6.5-9.4,11.7-21.4,14.7-34.9c3.9-17.4,3.5-34-0.4-47.1
					C696.7,599.8,698.1,591.3,698.1,591.3z"/>
				<g  a:adobe-knockout="true">
					<g  a:adobe-knockout="false">
						<path fill="#6E6B68" d="M636.5,710.9c-10.3-7.8-16.3-24.5-16.3-44.2l0,0c0-7.4,0.8-15.3,2.6-23.4l0,0
							c7.1-31.7,26.2-54.9,44.9-55.6l0,0v0c0.2,0,0.4,0.1,0.4,0.3l0,0c0,0.2-0.2,0.4-0.4,0.4l0,0c-18.1,0.5-37.2,23.5-44.2,55l0,0
							c-1.8,8-2.6,15.8-2.6,23.2l0,0c0,19.6,6,36.1,16,43.7l0,0c0.2,0.1,0.2,0.3,0.1,0.5l0,0c-0.1,0.1-0.2,0.1-0.3,0.1l0,0
							C636.6,710.9,636.5,710.9,636.5,710.9L636.5,710.9z"/>
					</g>
					<g  a:adobe-knockout="false">
						<path fill="#6E6B68" d="M641.6,712.6c-10.3-7.9-16.3-24.7-16.3-44.7l0,0c0-7.5,0.8-15.5,2.6-23.6l0,0
							c7.1-32,26.2-55.5,44.9-56.2l0,0c0.2,0,0.4,0.1,0.4,0.4l0,0c0,0.2-0.2,0.4-0.3,0.4l0,0c-18.1,0.6-37.2,23.7-44.2,55.6l0,0
							c-1.8,8.1-2.6,16-2.6,23.5l0,0c0,19.8,6,36.4,16,44.1l0,0c0.2,0.1,0.2,0.4,0.1,0.5l0,0c-0.1,0.1-0.2,0.1-0.3,0.1l0,0
							C641.7,712.6,641.6,712.6,641.6,712.6L641.6,712.6z"/>
					</g>
					<g  a:adobe-knockout="false">
						<path fill="#6E6B68" d="M646.7,714.3c-10.3-8-16.3-24.9-16.3-45.1l0,0c0-7.6,0.8-15.6,2.6-23.9l0,0
							c7.1-32.3,26.2-56,44.9-56.7l0,0c0.2,0,0.4,0.2,0.4,0.4l0,0c0,0.2-0.2,0.4-0.4,0.4l0,0c-18.1,0.6-37.2,24-44.2,56.1l0,0
							c-1.8,8.2-2.6,16.2-2.6,23.7l0,0c0,20,6,36.8,16,44.5l0,0c0.2,0.1,0.2,0.4,0.1,0.5l0,0c-0.1,0.1-0.2,0.1-0.3,0.1l0,0
							C646.8,714.4,646.7,714.4,646.7,714.3L646.7,714.3z"/>
					</g>
					<g  a:adobe-knockout="false">
						<path fill="#6E6B68" d="M651.7,716c-10.3-8.1-16.3-25.2-16.3-45.6l0,0c0-7.7,0.8-15.8,2.6-24.1l0,0
							c7.1-32.6,26.2-56.6,44.9-57.3l0,0v0c0.2,0,0.4,0.1,0.4,0.3l0,0c0,0.2-0.2,0.4-0.3,0.4l0,0c-18.1,0.6-37.2,24.2-44.2,56.7l0,0
							c-1.8,8.2-2.6,16.3-2.6,23.9l0,0c0,20.2,6,37.2,16,45l0,0c0.2,0.1,0.2,0.4,0.1,0.5l0,0c-0.1,0.1-0.2,0.1-0.3,0.1l0,0
							C651.9,716.1,651.8,716.1,651.7,716L651.7,716z"/>
					</g>
					<g  a:adobe-knockout="false">
						<path fill="#6E6B68" d="M656.8,717.7c-10.3-8.1-16.3-25.4-16.3-46l0,0c0-7.7,0.8-16,2.6-24.3l0,0
							c7.1-32.9,26.2-57.1,44.9-57.8l0,0l0,0c0.2,0,0.4,0.1,0.4,0.3l0,0c0,0.2-0.2,0.4-0.4,0.4l0,0c-18.1,0.6-37.2,24.5-44.2,57.3
							l0,0c-1.8,8.3-2.6,16.5-2.6,24.2l0,0c0,20.4,6,37.5,16,45.4l0,0c0.2,0.1,0.2,0.3,0.1,0.5l0,0c-0.1,0.1-0.2,0.1-0.3,0.1l0,0
							C657,717.8,656.9,717.8,656.8,717.7L656.8,717.7z"/>
					</g>
				</g>
				
					<ellipse transform="matrix(0.9755 0.2199 -0.2199 0.9755 161.1507 -134.5712)" fill="#231F20" cx="685" cy="656.5" rx="38.6" ry="66.3"/>
				
					<ellipse transform="matrix(0.9755 0.2198 -0.2198 0.9755 161.42 -135.4538)" fill="#72777B" cx="689.3" cy="657.6" rx="18.5" ry="31.8"/>
				<path fill="#97A0A3" d="M701.1,660.2c-3.2,14.1-12.4,24.1-20.7,22.2c-8.2-1.9-12.3-14.8-9.1-29c3.2-14.1,12.4-24.1,20.7-22.2
					C700.2,633.1,704.3,646.1,701.1,660.2z"/>
				<g>
					<path fill="#BE202E" d="M690.9,657.9c-1,4.5-4,7.7-6.6,7.1c-2.6-0.6-3.9-4.7-2.9-9.2c1-4.5,4-7.7,6.6-7.1
						C690.7,649.3,692,653.4,690.9,657.9z"/>
					<path fill="#7F1C24" d="M688,648.7c-0.5-0.1-1.1,0-1.6,0.1c2.4,0.8,3.6,4.8,2.6,9.1c-0.8,3.6-2.8,6.3-5,7
						c0.1,0,0.2,0.1,0.3,0.1c2.6,0.6,5.6-2.6,6.6-7.1C692,653.4,690.7,649.3,688,648.7z"/>
				</g>
				<g>
					
						<ellipse transform="matrix(0.9755 0.2199 -0.2199 0.9755 158.0582 -135.154)" fill="#72777B" cx="686.2" cy="642.5" rx="2.5" ry="4.2"/>
					<path fill="#231F20" d="M687.1,638.3c-0.3-0.1-0.6,0-0.8,0.1c1.2,0.4,1.8,2.4,1.3,4.6c-0.4,1.8-1.4,3.2-2.5,3.5
						c0.1,0,0.1,0.1,0.2,0.1c1.3,0.3,2.8-1.3,3.3-3.6C689.1,640.7,688.5,638.6,687.1,638.3z"/>
				</g>
				<g>
					
						<ellipse transform="matrix(0.9755 0.2198 -0.2198 0.9755 158.7861 -136.8732)" fill="#72777B" cx="694.4" cy="645.1" rx="2.5" ry="4.2"/>
					<path fill="#231F20" d="M695.4,640.9c-0.3-0.1-0.6,0-0.8,0.1c1.2,0.4,1.8,2.4,1.3,4.6c-0.4,1.8-1.4,3.2-2.5,3.5
						c0.1,0,0.1,0.1,0.2,0.1c1.3,0.3,2.8-1.3,3.3-3.6C697.3,643.3,696.7,641.2,695.4,640.9z"/>
				</g>
				<g>
					
						<ellipse transform="matrix(0.9755 0.2199 -0.2199 0.9755 161.6185 -137.1383)" fill="#72777B" cx="696.9" cy="657.5" rx="2.5" ry="4.2"/>
					<path fill="#231F20" d="M697.8,653.3c-0.3-0.1-0.6,0-0.8,0.1c1.2,0.4,1.8,2.4,1.3,4.6c-0.4,1.8-1.4,3.2-2.5,3.5
						c0.1,0,0.1,0.1,0.2,0.1c1.3,0.3,2.8-1.3,3.3-3.6C699.8,655.7,699.1,653.6,697.8,653.3z"/>
				</g>
				<g>
					
						<ellipse transform="matrix(0.9755 0.2198 -0.2198 0.9755 164.2679 -135.6165)" fill="#72777B" cx="691.5" cy="670.3" rx="2.5" ry="4.2"/>
					<path fill="#231F20" d="M692.4,666.2c-0.3-0.1-0.6,0-0.8,0.1c1.2,0.4,1.8,2.4,1.3,4.6c-0.4,1.8-1.4,3.2-2.5,3.5
						c0.1,0,0.1,0.1,0.2,0.1c1.3,0.3,2.8-1.3,3.3-3.6C694.4,668.6,693.8,666.5,692.4,666.2z"/>
				</g>
				<g>
					
						<ellipse transform="matrix(0.9755 0.2198 -0.2198 0.9755 164.8172 -133.2845)" fill="#72777B" cx="681.3" cy="674" rx="2.5" ry="4.2"/>
					<path fill="#231F20" d="M682.2,669.8c-0.3-0.1-0.6,0-0.8,0.1c1.2,0.4,1.8,2.4,1.3,4.6c-0.4,1.8-1.4,3.2-2.5,3.5
						c0.1,0,0.1,0.1,0.2,0.1c1.3,0.3,2.8-1.3,3.3-3.6C684.2,672.2,683.6,670.1,682.2,669.8z"/>
				</g>
				<g>
					
						<ellipse transform="matrix(0.9756 0.2196 -0.2196 0.9756 162.1562 -132.2545)" fill="#72777B" cx="676" cy="663.3" rx="2.5" ry="4.2"/>
					<path fill="#231F20" d="M676.9,659.1c-0.3-0.1-0.6,0-0.8,0.1c1.2,0.4,1.8,2.4,1.3,4.6c-0.4,1.8-1.4,3.2-2.5,3.5
						c0.1,0,0.1,0.1,0.2,0.1c1.3,0.3,2.8-1.3,3.3-3.6C678.9,661.5,678.2,659.4,676.9,659.1z"/>
				</g>
				<g>
					
						<ellipse transform="matrix(0.9755 0.2198 -0.2198 0.9755 159.4637 -133.1841)" fill="#72777B" cx="678.2" cy="649.9" rx="2.5" ry="4.2"/>
					<path fill="#231F20" d="M679.1,645.8c-0.3-0.1-0.6,0-0.8,0.1c1.2,0.4,1.8,2.4,1.3,4.6c-0.4,1.8-1.4,3.2-2.5,3.5
						c0.1,0,0.1,0.1,0.2,0.1c1.3,0.3,2.8-1.3,3.3-3.6C681.1,648.2,680.4,646.1,679.1,645.8z"/>
				</g>
			</g>
			<g>
				<path fill="#12110C" d="M1141.8,578.9c0,0-22-5.3-26.9-4.7c-16,0.5-32.7,20.4-38.8,47.5c-6.7,29.9,1.9,57.3,19.3,61.2
					c0,0,26.1,7,27.2,4.4c0.3-0.7,2-9.7,4.2-22.2c5.4-7.9,9.8-17.9,12.3-29.2c3.3-14.5,2.9-28.5-0.3-39.4
					C1140.6,585.9,1141.8,578.9,1141.8,578.9z"/>
				<g  a:adobe-knockout="true">
					<g  a:adobe-knockout="false">
						<path fill="#6E6B68" d="M1090.2,678.9c-8.6-6.6-13.6-20.5-13.6-37l0,0c0-6.2,0.7-12.8,2.2-19.6l0,0
							c5.9-26.5,21.9-46,37.6-46.5l0,0v0c0.2,0,0.3,0.1,0.3,0.3l0,0c0,0.2-0.1,0.3-0.3,0.3l0,0c-15.2,0.5-31.2,19.7-37,46.1l0,0
							c-1.5,6.7-2.2,13.3-2.2,19.4l0,0c0,16.4,5,30.2,13.4,36.5l0,0c0.1,0.1,0.2,0.3,0.1,0.4l0,0c-0.1,0.1-0.2,0.1-0.2,0.1l0,0
							C1090.3,679,1090.2,678.9,1090.2,678.9L1090.2,678.9z"/>
					</g>
					<g  a:adobe-knockout="false">
						<path fill="#6E6B68" d="M1094.4,680.3c-8.6-6.6-13.6-20.7-13.6-37.4l0,0c0-6.3,0.7-13,2.2-19.8l0,0
							c5.9-26.8,21.9-46.5,37.6-47l0,0c0.2,0,0.3,0.1,0.3,0.3l0,0c0,0.2-0.1,0.3-0.3,0.3l0,0c-15.2,0.5-31.2,19.9-37,46.5l0,0
							c-1.5,6.8-2.2,13.4-2.2,19.6l0,0c0,16.6,5,30.5,13.4,36.9l0,0c0.1,0.1,0.2,0.3,0.1,0.4l0,0c-0.1,0.1-0.2,0.1-0.2,0.1l0,0
							C1094.5,680.4,1094.5,680.4,1094.4,680.3L1094.4,680.3z"/>
					</g>
					<g  a:adobe-knockout="false">
						<path fill="#6E6B68" d="M1098.7,681.8c-8.6-6.7-13.6-20.9-13.6-37.8l0,0c0-6.4,0.7-13.1,2.2-20l0,0
							c5.9-27,21.9-46.9,37.6-47.5l0,0c0.2,0,0.3,0.1,0.3,0.3l0,0c0,0.2-0.1,0.3-0.3,0.3l0,0c-15.2,0.5-31.2,20.1-37,47l0,0
							c-1.5,6.8-2.2,13.5-2.2,19.8l0,0c0,16.8,5,30.8,13.4,37.3l0,0c0.1,0.1,0.2,0.3,0.1,0.4l0,0c-0.1,0.1-0.2,0.1-0.2,0.1l0,0
							C1098.8,681.8,1098.7,681.8,1098.7,681.8L1098.7,681.8z"/>
					</g>
					<g  a:adobe-knockout="false">
						<path fill="#6E6B68" d="M1103,683.2c-8.6-6.8-13.6-21.1-13.6-38.1l0,0c0-6.4,0.7-13.2,2.2-20.2l0,0
							c5.9-27.3,21.9-47.4,37.6-47.9l0,0v0c0.2,0,0.3,0.1,0.3,0.3l0,0c0,0.2-0.1,0.3-0.3,0.3l0,0c-15.2,0.5-31.2,20.3-37,47.5l0,0
							c-1.5,6.9-2.2,13.7-2.2,20l0,0c0,16.9,5,31.1,13.4,37.7l0,0c0.1,0.1,0.2,0.3,0,0.4l0,0c-0.1,0.1-0.2,0.1-0.2,0.1l0,0
							C1103.1,683.3,1103,683.3,1103,683.2L1103,683.2z"/>
					</g>
					<g  a:adobe-knockout="false">
						<path fill="#6E6B68" d="M1107.2,684.7c-8.6-6.8-13.6-21.3-13.6-38.5l0,0c0-6.5,0.7-13.4,2.2-20.4l0,0
							c5.9-27.6,21.9-47.8,37.6-48.4l0,0l0,0c0.2,0,0.3,0.1,0.3,0.3l0,0c0,0.2-0.1,0.3-0.3,0.3l0,0c-15.2,0.5-31.2,20.5-37,47.9l0,0
							c-1.5,7-2.2,13.8-2.2,20.2l0,0c0,17.1,5,31.4,13.4,38l0,0c0.1,0.1,0.2,0.3,0.1,0.4l0,0c-0.1,0.1-0.1,0.1-0.2,0.1l0,0
							C1107.3,684.7,1107.3,684.7,1107.2,684.7L1107.2,684.7z"/>
					</g>
				</g>
				
					<ellipse transform="matrix(0.9755 0.2199 -0.2199 0.9755 166.9797 -233.173)" fill="#231F20" cx="1130.8" cy="633.4" rx="32.3" ry="55.5"/>
				<path fill="#72777B" d="M1149.5,637.7c-3.2,14.3-12.6,24.4-21,22.5c-8.3-1.9-12.5-15-9.3-29.4c3.2-14.3,12.6-24.4,21-22.5
					C1148.6,610.2,1152.8,623.4,1149.5,637.7z"/>
				<path fill="#97A0A3" d="M1144.3,636.5c-2.7,11.8-10.4,20.2-17.3,18.6c-6.9-1.6-10.3-12.4-7.7-24.2c2.7-11.8,10.4-20.2,17.3-18.6
					C1143.5,613.8,1146.9,624.7,1144.3,636.5z"/>
				<g>
					<path fill="#BE202E" d="M1135.8,634.6c-0.8,3.8-3.3,6.4-5.5,5.9c-2.2-0.5-3.3-4-2.4-7.7c0.9-3.8,3.3-6.4,5.5-5.9
						C1135.5,627.4,1136.6,630.8,1135.8,634.6z"/>
					<path fill="#7F1C24" d="M1133.3,626.9c-0.5-0.1-0.9,0-1.4,0.1c2,0.7,3,4,2.2,7.6c-0.7,3-2.4,5.3-4.2,5.8c0.1,0,0.2,0.1,0.3,0.1
						c2.2,0.5,4.7-2.2,5.5-5.9C1136.6,630.8,1135.5,627.4,1133.3,626.9z"/>
				</g>
				<g>
					<path fill="#72777B" d="M1133.8,622.1c-0.4,1.9-1.7,3.3-2.8,3c-1.1-0.2-1.7-2-1.2-3.9c0.4-1.9,1.7-3.3,2.8-3
						C1133.7,618.5,1134.2,620.2,1133.8,622.1z"/>
					<path fill="#231F20" d="M1132.6,618.2c-0.2-0.1-0.5,0-0.7,0.1c1,0.4,1.5,2,1.1,3.9c-0.3,1.5-1.2,2.7-2.1,3c0,0,0.1,0,0.1,0.1
						c1.1,0.3,2.4-1.1,2.8-3C1134.2,620.2,1133.7,618.5,1132.6,618.2z"/>
				</g>
				<g>
					<path fill="#72777B" d="M1140.7,624.3c-0.4,1.9-1.7,3.3-2.8,3c-1.1-0.2-1.7-2-1.2-3.9c0.4-1.9,1.7-3.3,2.8-3
						C1140.6,620.6,1141.1,622.4,1140.7,624.3z"/>
					<path fill="#231F20" d="M1139.5,620.4c-0.2-0.1-0.5,0-0.7,0.1c1,0.4,1.5,2,1.1,3.9c-0.3,1.5-1.2,2.7-2.1,3c0,0,0.1,0,0.1,0.1
						c1.1,0.3,2.4-1.1,2.8-3C1141.1,622.4,1140.6,620.6,1139.5,620.4z"/>
				</g>
				<g>
					<path fill="#72777B" d="M1142.7,634.6c-0.4,1.9-1.7,3.3-2.8,3c-1.1-0.2-1.7-2-1.2-3.9c0.4-1.9,1.7-3.3,2.8-3
						C1142.6,631,1143.2,632.7,1142.7,634.6z"/>
					<path fill="#231F20" d="M1141.5,630.7c-0.2-0.1-0.5,0-0.7,0.1c1,0.4,1.5,2,1.1,3.9c-0.3,1.5-1.2,2.7-2.1,3c0,0,0.1,0,0.1,0.1
						c1.1,0.3,2.4-1.1,2.8-3C1143.2,632.7,1142.6,631,1141.5,630.7z"/>
				</g>
				<g>
					<path fill="#72777B" d="M1138.3,645.4c-0.4,1.9-1.7,3.3-2.8,3c-1.1-0.3-1.7-2-1.2-3.9c0.4-1.9,1.7-3.3,2.8-3
						C1138.1,641.8,1138.7,643.5,1138.3,645.4z"/>
					<path fill="#231F20" d="M1137,641.5c-0.2-0.1-0.5,0-0.7,0.1c1,0.4,1.5,2,1.1,3.9c-0.3,1.5-1.2,2.7-2.1,3c0,0,0.1,0,0.1,0.1
						c1.1,0.2,2.4-1.1,2.8-3C1138.7,643.5,1138.1,641.8,1137,641.5z"/>
				</g>
				<g>
					<path fill="#72777B" d="M1129.7,648.5c-0.4,1.9-1.7,3.3-2.8,3c-1.1-0.2-1.7-2-1.2-3.9c0.4-1.9,1.7-3.3,2.8-3
						C1129.6,644.8,1130.2,646.6,1129.7,648.5z"/>
					<path fill="#231F20" d="M1128.5,644.6c-0.2-0.1-0.5,0-0.7,0.1c1,0.4,1.5,2,1.1,3.9c-0.3,1.5-1.2,2.7-2.1,3c0,0,0.1,0,0.1,0.1
						c1.1,0.3,2.4-1.1,2.8-3C1130.2,646.6,1129.6,644.8,1128.5,644.6z"/>
				</g>
				<g>
					<path fill="#72777B" d="M1125.2,639.5c-0.4,1.9-1.7,3.3-2.8,3c-1.1-0.3-1.7-2-1.2-3.9c0.4-1.9,1.7-3.3,2.8-3
						C1125.1,635.9,1125.7,637.6,1125.2,639.5z"/>
					<path fill="#231F20" d="M1124,635.6c-0.2-0.1-0.5,0-0.7,0.1c1,0.4,1.5,2,1.1,3.9c-0.3,1.5-1.2,2.7-2.1,3c0,0,0.1,0,0.1,0.1
						c1.1,0.3,2.4-1.1,2.8-3C1125.7,637.6,1125.1,635.9,1124,635.6z"/>
				</g>
				<g>
					<path fill="#72777B" d="M1127.1,628.3c-0.4,1.9-1.7,3.3-2.8,3c-1.1-0.2-1.7-2-1.2-3.9c0.4-1.9,1.7-3.3,2.8-3
						C1127,624.7,1127.5,626.4,1127.1,628.3z"/>
					<path fill="#231F20" d="M1125.8,624.4c-0.2-0.1-0.5,0-0.7,0.1c1,0.4,1.5,2,1.1,3.9c-0.3,1.5-1.2,2.7-2.1,3c0,0,0.1,0,0.1,0.1
						c1.1,0.3,2.4-1.1,2.8-3C1127.5,626.4,1127,624.7,1125.8,624.4z"/>
				</g>
			</g>
			<path fill="#B4A4A5" d="M1193.2,454.1c-7.8-46.9-30-127.1-72.4-149.7c-29.4-20.7-91.3-23.3-244.8-23.3
				c-153.5,0-341.9,31.1-341.9,31.1l95.2,42.7l258.4,372c0,0,9.2-3.9,24.3-10.4c8.1-35.6,31.4-60.6,52.2-55.9
				c10.2,2.3,17.8,11.3,22,24.1c37.9-16.3,80.8-34.8,117.2-50.5c0.3-2,0.7-4.1,1.1-6.2c6.3-27.7,24.4-47.2,40.6-43.6
				c9.1,2.1,15.7,11.1,18.5,23.6c10.7-4.7,18.3-8.1,21.7-9.7c18.3-7.2,11.7-17.6,11.7-17.6S1204.3,517.4,1193.2,454.1z"/>
			<linearGradient id="SVGID_3_" gradientUnits="userSpaceOnUse" x1="1112.3562" y1="326.7361" x2="1112.3562" y2="564.6952">
				<stop  offset="0" style="stop-color:#ABC2CD"/>
				<stop  offset="0.2994" style="stop-color:#A8BFCA"/>
				<stop  offset="0.5362" style="stop-color:#9FB7C2"/>
				<stop  offset="0.7517" style="stop-color:#91A9B5"/>
				<stop  offset="0.9533" style="stop-color:#7E97A4"/>
				<stop  offset="1" style="stop-color:#79929F"/>
				<a:midPointStop  offset="0" style="stop-color:#ABC2CD"/>
				<a:midPointStop  offset="0.7527" style="stop-color:#ABC2CD"/>
				<a:midPointStop  offset="1" style="stop-color:#79929F"/>
			</linearGradient>
			<path fill="url(#SVGID_3_)" d="M1115,317.5l1-5.8c0,0,5.8-1.9,5.8,2.9c0,4.9-12.1,285.1-12.1,285.1l-6.8,6.8L1115,317.5z"/>
			<linearGradient id="SVGID_4_" gradientUnits="userSpaceOnUse" x1="1094.8193" y1="403.2177" x2="774.3021" y2="500.343">
				<stop  offset="0" style="stop-color:#ABC2CD"/>
				<stop  offset="0.2994" style="stop-color:#A8BFCA"/>
				<stop  offset="0.5362" style="stop-color:#9FB7C2"/>
				<stop  offset="0.7517" style="stop-color:#91A9B5"/>
				<stop  offset="0.9533" style="stop-color:#7E97A4"/>
				<stop  offset="1" style="stop-color:#79929F"/>
				<a:midPointStop  offset="0" style="stop-color:#ABC2CD"/>
				<a:midPointStop  offset="0.7527" style="stop-color:#ABC2CD"/>
				<a:midPointStop  offset="1" style="stop-color:#79929F"/>
			</linearGradient>
			<path fill="url(#SVGID_4_)" d="M964.2,660.5c9.1,2,16.1,9.4,20.6,20.1l119.5-57c3-63.2,12-251.4,13.6-294.9
				c0.4-11.9-0.5-20.7-2.3-27.2c-32.5-16.9-94.2-20.4-239.6-20.4c-153.5,0-341.9,31.1-341.9,31.1l95.2,42.7l258.4,372l24.6-11.7
				C920.8,680.3,943.8,655.9,964.2,660.5z"/>
			<linearGradient id="SVGID_5_" gradientUnits="userSpaceOnUse" x1="993.9718" y1="596.7454" x2="993.9718" y2="337.4188">
				<stop  offset="0" style="stop-color:#ABC2CD"/>
				<stop  offset="0.2994" style="stop-color:#A8BFCA"/>
				<stop  offset="0.5362" style="stop-color:#9FB7C2"/>
				<stop  offset="0.7517" style="stop-color:#91A9B5"/>
				<stop  offset="0.9533" style="stop-color:#7E97A4"/>
				<stop  offset="1" style="stop-color:#79929F"/>
				<a:midPointStop  offset="0" style="stop-color:#ABC2CD"/>
				<a:midPointStop  offset="0.7527" style="stop-color:#ABC2CD"/>
				<a:midPointStop  offset="1" style="stop-color:#79929F"/>
			</linearGradient>
			<path fill="url(#SVGID_5_)" d="M964.2,660.5c10.1,2.3,17.7,11.2,22,23.9l117.3-50.6c0.3-1.9,0.7-3.9,1.1-5.9
				c0.1-0.3,0.2-0.6,0.2-0.9c3.3-69.1,11.5-256.2,13-298.3c0.2-6.4,0.1-11.8-0.4-16.5c-57.2,5.8-198.7,27.2-198.7,27.2
				s-41.1,291.1-48.9,361.8l17.9,25.7l24.3-10.5C920.2,680.9,943.5,655.9,964.2,660.5z"/>
			<g>
				<g>
					<path fill="#93B3CB" d="M930.7,350.1c-0.1-0.4,0.2-0.8,0.6-0.8l0,0L1112,324c0.4-0.1,0.8,0.2,0.8,0.6l0,0
						c0.1,0.4-0.2,0.8-0.6,0.8l0,0l-180.7,25.2c0,0-0.1,0-0.1,0l0,0C931.1,350.7,930.8,350.4,930.7,350.1L930.7,350.1z"/>
				</g>
				<g>
					<path fill="#436F96" d="M930.7,349.2c-0.1-0.4,0.2-0.8,0.6-0.8l0,0l180.7-25.3c0.4-0.1,0.8,0.2,0.8,0.6l0,0
						c0.1,0.4-0.2,0.8-0.6,0.8l0,0l-180.7,25.3c0,0-0.1,0-0.1,0l0,0C931.1,349.8,930.8,349.5,930.7,349.2L930.7,349.2z"/>
				</g>
			</g>
			<g>
				<path fill="#93B3CB" d="M928.6,377.3c-0.1-0.4,0.2-0.8,0.6-0.8l0,0l181.6-29.3c0.4-0.1,0.8,0.2,0.8,0.6l0,0
					c0.1,0.4-0.2,0.8-0.6,0.8l0,0l-181.6,29.3c0,0-0.1,0-0.1,0l0,0C928.9,377.9,928.6,377.7,928.6,377.3L928.6,377.3z"/>
				<path fill="#436F96" d="M928.6,376.4c-0.1-0.4,0.2-0.8,0.6-0.8l0,0l181.5-29.3c0.4-0.1,0.8,0.2,0.8,0.6l0,0
					c0.1,0.4-0.2,0.8-0.6,0.8l0,0L929.4,377c0,0-0.1,0-0.1,0l0,0C928.9,377,928.6,376.8,928.6,376.4L928.6,376.4z"/>
			</g>
			<g>
				<path fill="#93B3CB" d="M926.4,404.5c-0.1-0.4,0.2-0.8,0.6-0.8l0,0l182.4-33.3c0.4-0.1,0.8,0.2,0.8,0.6l0,0
					c0.1,0.4-0.2,0.8-0.6,0.8l0,0l-182.4,33.3c0,0-0.1,0-0.1,0l0,0C926.8,405.2,926.5,404.9,926.4,404.5L926.4,404.5z"/>
				<path fill="#436F96" d="M926.4,403.6c-0.1-0.4,0.2-0.8,0.6-0.8l0,0l182.4-33.3c0.4-0.1,0.8,0.2,0.8,0.6l0,0
					c0.1,0.4-0.2,0.8-0.6,0.8l0,0l-182.5,33.3c0,0-0.1,0-0.1,0l0,0C926.8,404.3,926.5,404,926.4,403.6L926.4,403.6z"/>
			</g>
			<g>
				<path fill="#93B3CB" d="M924.2,431.8c-0.1-0.4,0.2-0.8,0.6-0.8l0,0l183.3-37.4c0.4-0.1,0.8,0.2,0.8,0.6l0,0
					c0.1,0.4-0.2,0.8-0.6,0.8l0,0l-183.3,37.4c0,0-0.1,0-0.1,0l0,0C924.6,432.4,924.3,432.1,924.2,431.8L924.2,431.8z"/>
				<path fill="#436F96" d="M924.2,430.9c-0.1-0.4,0.2-0.8,0.6-0.8l0,0l183.3-37.4c0.4-0.1,0.8,0.2,0.8,0.6l0,0
					c0.1,0.4-0.2,0.8-0.6,0.8l0,0l-183.4,37.4c0,0-0.1,0-0.1,0l0,0C924.6,431.5,924.3,431.2,924.2,430.9L924.2,430.9z"/>
			</g>
			<g>
				<path fill="#93B3CB" d="M922.1,459c-0.1-0.4,0.2-0.8,0.6-0.8l0,0l184.2-41.4c0.4-0.1,0.8,0.2,0.8,0.6l0,0
					c0.1,0.4-0.2,0.8-0.6,0.8l0,0l-184.2,41.4c0,0-0.1,0-0.1,0l0,0C922.4,459.6,922.1,459.4,922.1,459L922.1,459z"/>
				<path fill="#436F96" d="M922.1,458.1c-0.1-0.4,0.2-0.8,0.6-0.8l0,0l184.2-41.4c0.4-0.1,0.8,0.2,0.8,0.6l0,0
					c0.1,0.4-0.2,0.8-0.6,0.8l0,0l-184.2,41.4c0,0-0.1,0-0.1,0l0,0C922.4,458.7,922.1,458.5,922.1,458.1L922.1,458.1z"/>
			</g>
			<g>
				<path fill="#93B3CB" d="M919.9,486.2c-0.1-0.4,0.2-0.8,0.6-0.8l0,0l185.1-45.4c0.4-0.1,0.8,0.2,0.8,0.6l0,0
					c0.1,0.4-0.2,0.8-0.6,0.8l0,0l-185.1,45.4c0,0-0.1,0-0.1,0l0,0C920.3,486.9,920,486.6,919.9,486.2L919.9,486.2z"/>
				<path fill="#436F96" d="M919.9,485.3c-0.1-0.4,0.2-0.8,0.6-0.8l0,0l185.1-45.4c0.4-0.1,0.8,0.2,0.8,0.6l0,0
					c0.1,0.4-0.2,0.8-0.6,0.8l0,0L920.7,486c0,0-0.1,0-0.1,0l0,0C920.3,486,920,485.7,919.9,485.3L919.9,485.3z"/>
			</g>
			<g>
				<path fill="#93B3CB" d="M917.7,513.5c-0.1-0.4,0.2-0.8,0.6-0.8l0,0l186-49.5c0.4-0.1,0.8,0.2,0.8,0.6l0,0
					c0.1,0.4-0.2,0.8-0.6,0.8l0,0l-186,49.5c0,0-0.1,0-0.1,0l0,0C918.1,514.1,917.8,513.8,917.7,513.5L917.7,513.5z"/>
				<path fill="#436F96" d="M917.7,512.6c-0.1-0.4,0.2-0.8,0.6-0.8l0,0l186-49.5c0.4-0.1,0.8,0.2,0.8,0.6l0,0
					c0.1,0.4-0.2,0.8-0.6,0.8l0,0l-186,49.5c0,0-0.1,0-0.1,0l0,0C918.1,513.2,917.8,512.9,917.7,512.6L917.7,512.6z"/>
			</g>
			<g>
				<path fill="#93B3CB" d="M915.6,540.7c-0.1-0.4,0.2-0.8,0.6-0.8l0,0l186.9-53.5c0.4-0.1,0.8,0.2,0.8,0.6l0,0
					c0.1,0.4-0.2,0.8-0.6,0.8l0,0l-186.9,53.5c0,0-0.1,0-0.1,0l0,0C915.9,541.3,915.6,541.1,915.6,540.7L915.6,540.7z"/>
				<path fill="#436F96" d="M915.6,539.8c-0.1-0.4,0.2-0.8,0.6-0.8l0,0l186.9-53.5c0.4-0.1,0.8,0.2,0.8,0.6l0,0
					c0.1,0.4-0.2,0.8-0.6,0.8l0,0l-186.9,53.5c0,0-0.1,0-0.1,0l0,0C915.9,540.4,915.6,540.2,915.6,539.8L915.6,539.8z"/>
			</g>
			<g>
				<path fill="#93B3CB" d="M913.4,567.9c-0.1-0.4,0.2-0.8,0.6-0.8l0,0l187.8-57.5c0.4-0.1,0.8,0.2,0.8,0.6l0,0
					c0.1,0.4-0.2,0.8-0.6,0.8l0,0l-187.8,57.5c0,0-0.1,0-0.1,0l0,0C913.8,568.6,913.5,568.3,913.4,567.9L913.4,567.9z"/>
				<path fill="#436F96" d="M913.4,567c-0.1-0.4,0.2-0.8,0.6-0.8l0,0l187.8-57.5c0.4-0.1,0.8,0.2,0.8,0.6l0,0
					c0.1,0.4-0.2,0.8-0.6,0.8l0,0l-187.8,57.5c0,0-0.1,0-0.1,0l0,0C913.8,567.7,913.5,567.4,913.4,567L913.4,567z"/>
			</g>
			<g>
				<path fill="#93B3CB" d="M911.2,595.2c-0.1-0.4,0.2-0.8,0.6-0.8l0,0l188.7-61.6c0.4-0.1,0.8,0.2,0.8,0.6l0,0
					c0.1,0.4-0.2,0.8-0.6,0.8l0,0l-188.7,61.6c0,0-0.1,0-0.1,0l0,0C911.6,595.8,911.3,595.5,911.2,595.2L911.2,595.2z"/>
				<path fill="#436F96" d="M911.2,594.3c-0.1-0.4,0.2-0.8,0.6-0.8l0,0l188.7-61.6c0.4-0.1,0.8,0.2,0.8,0.6l0,0
					c0.1,0.4-0.2,0.8-0.6,0.8l0,0l-188.7,61.6c0,0-0.1,0-0.1,0l0,0C911.6,594.9,911.3,594.6,911.2,594.3L911.2,594.3z"/>
			</g>
			<g>
				<path fill="#93B3CB" d="M909.1,622.4c-0.1-0.4,0.2-0.8,0.6-0.8l0,0l189.6-65.6c0.4-0.1,0.8,0.2,0.8,0.6l0,0
					c0.1,0.4-0.2,0.8-0.6,0.8l0,0L909.9,623c0,0-0.1,0-0.1,0l0,0C909.4,623,909.1,622.8,909.1,622.4L909.1,622.4z"/>
				<path fill="#436F96" d="M909.1,621.5c-0.1-0.4,0.2-0.8,0.6-0.8l0,0l189.6-65.6c0.4-0.1,0.8,0.2,0.8,0.6l0,0
					c0.1,0.4-0.2,0.8-0.6,0.8l0,0l-189.6,65.6c0,0-0.1,0-0.1,0l0,0C909.4,622.1,909.1,621.9,909.1,621.5L909.1,621.5z"/>
			</g>
			<g>
				<path fill="#93B3CB" d="M906.9,649.6c-0.1-0.4,0.2-0.8,0.6-0.8l0,0l190.5-69.6c0.4-0.1,0.8,0.2,0.8,0.6l0,0
					c0.1,0.4-0.2,0.8-0.6,0.8l0,0l-190.5,69.6c0,0-0.1,0-0.1,0l0,0C907.3,650.3,907,650,906.9,649.6L906.9,649.6z"/>
				<path fill="#436F96" d="M906.9,648.7c-0.1-0.4,0.2-0.8,0.6-0.8l0,0l190.5-69.6c0.4-0.1,0.8,0.2,0.8,0.6l0,0
					c0.1,0.4-0.2,0.8-0.6,0.8l0,0l-190.5,69.6c0,0-0.1,0-0.1,0l0,0C907.3,649.4,907,649.1,906.9,648.7L906.9,648.7z"/>
			</g>
			<g>
				<path fill="#93B3CB" d="M904.7,676.9c-0.1-0.4,0.2-0.8,0.6-0.8l0,0l191.4-73.7c0.4-0.1,0.8,0.2,0.8,0.6l0,0
					c0.1,0.4-0.2,0.8-0.6,0.8l0,0l-191.4,73.7c0,0-0.1,0-0.1,0l0,0C905.1,677.5,904.8,677.2,904.7,676.9L904.7,676.9z"/>
				<path fill="#436F96" d="M904.7,676c-0.1-0.4,0.2-0.8,0.6-0.8l0,0l191.4-73.7c0.4-0.1,0.8,0.2,0.8,0.6l0,0
					c0.1,0.4-0.2,0.8-0.6,0.8l0,0l-191.4,73.7c0,0-0.1,0-0.1,0l0,0C905.1,676.6,904.8,676.3,904.7,676L904.7,676z"/>
			</g>
			<path fill="#93B3CB" d="M1095.5,625.6l-115.3,46.6c0.3,0.4,0.5,0.8,0.8,1.2l114.7-46.3c0.4-0.1,0.7-0.4,0.6-0.8
				C1096.3,625.8,1095.9,625.5,1095.5,625.6z M902.6,704.1c0.1,0.4,0.4,0.6,0.7,0.6c0,0,0.1,0,0.1,0l14.2-5.7
				c0.3-0.6,0.5-1.2,0.8-1.8l-15.2,6.1C902.8,703.3,902.5,703.7,902.6,704.1z"/>
			<path fill="#436F96" d="M1095.5,624.7l-115.8,46.8c0.3,0.4,0.6,0.8,0.8,1.2l115.2-46.5c0.4-0.1,0.7-0.4,0.6-0.8
				C1096.3,624.9,1095.9,624.6,1095.5,624.7z M902.6,703.2c0.1,0.4,0.4,0.6,0.7,0.6c0,0,0.1,0,0.1,0l14.6-5.9
				c0.3-0.6,0.5-1.2,0.8-1.9l-15.6,6.3C902.8,702.4,902.5,702.8,902.6,703.2z"/>
			<path fill="#436F96" d="M1117.2,348.6l-201.5,28.7l-6.6,105.6l204-39.3C1114.8,405.9,1116.2,371.4,1117.2,348.6z"/>
			<path fill="#72777B" d="M558.7,338.2c0,0,171.5-10.2,339.6,22.1l-30.6,340.4l-278.5-62L558.7,338.2z"/>
			<path fill="#4B4747" d="M896.3,381.9l1.3-14.1c-35.6-4.2-213.1-25-215.2-25c-2.4,0-90.3-1.9-94.2-1c-3.3,0.8-23.2,3.1-28.7,3.7
				l0.5,5c10.1-0.1,103.1-0.5,187.5,7.8C822.1,365.6,879.5,378,896.3,381.9z"/>
			<path fill="#BE202E" d="M696.9,354.3c16.7,1,33.8,2.3,50.5,4c0.8,0.1,1.6,0.2,2.4,0.2v-8.1c-21.6-2.5-40.6-4.7-52.9-6.1V354.3z"
				/>
			<linearGradient id="SVGID_6_" gradientUnits="userSpaceOnUse" x1="720.0405" y1="672.3687" x2="881.2709" y2="585.9253">
				<stop  offset="0" style="stop-color:#989798"/>
				<stop  offset="1" style="stop-color:#2A2A27"/>
				<a:midPointStop  offset="0" style="stop-color:#989798"/>
				<a:midPointStop  offset="0.5" style="stop-color:#989798"/>
				<a:midPointStop  offset="1" style="stop-color:#2A2A27"/>
			</linearGradient>
			<path fill="url(#SVGID_6_)" d="M606.1,642.4l261.6,58.2l14.1-157c-125.7,24.9-292.7,91.4-292.7,91.4S595.5,637.9,606.1,642.4z"/>
			<g>
				<defs>
					<path id="SVGID_7_" d="M558.7,338.2c0,0,171.5-10.2,339.6,22.1l-30.6,340.4l-278.5-62L558.7,338.2z"/>
				</defs>
				<clipPath id="SVGID_8_">
					<use xlink:href="#SVGID_7_"  overflow="visible"/>
				</clipPath>
				<g clip-path="url(#SVGID_8_)">
					<g>
						<polygon fill="#A87D50" points="744,521.5 744,581.9 805.9,597.2 856.9,568.1 856.9,512.7 790.6,501.8 						"/>
						<path fill="#754D29" d="M856.9,512.7l-66.3-10.9l-0.2,0.1v53.9l30.8,13.5c0,0,28.8-15.5,30-19.5c0.7-2.3,3.4-10.2,5.6-16.9
							V512.7z"/>
						<polygon fill="#C3996B" points="810.2,594.8 808.8,533.9 744,521.8 744,581.9 805.9,597.2 						"/>
						<polygon fill="#8A5E3C" points="805.9,597.2 856.9,568.1 856.9,513.2 805.9,533.7 						"/>
						<polygon fill="#C3996B" points="743.5,521.7 775,523.2 810.3,507.5 790.6,500.8 						"/>
						<polygon fill="#C3996B" points="778.6,522.4 805.9,533.7 856.9,513.2 827.8,504.2 						"/>
					</g>
					<g>
						<polygon fill="#A87D50" points="746.4,460.5 746.4,521 808.4,536.3 859.3,507.1 859.3,451.8 793.1,440.9 						"/>
						<path fill="#754D29" d="M859.3,451.8l-66.3-10.9l-0.2,0.1v53.9l30.8,13.5c0,0,28.8-15.5,30-19.5c0.7-2.3,3.4-10.2,5.6-16.9
							V451.8z"/>
						<polygon fill="#C3996B" points="812.6,533.9 811.3,473 746.4,460.9 746.4,521 808.4,536.3 						"/>
						<polygon fill="#8A5E3C" points="808.4,536.3 859.3,507.1 859.3,452.2 808.4,472.8 						"/>
						<polygon fill="#C3996B" points="745.9,460.8 777.4,462.2 812.7,446.6 793.1,439.9 						"/>
						<polygon fill="#C3996B" points="781,461.5 808.4,472.8 859.3,452.2 830.2,443.3 						"/>
					</g>
					<g>
						<polygon fill="#A87D50" points="820.7,533.4 820.7,593.8 882.7,609.1 933.6,580 933.6,524.6 867.4,513.7 						"/>
						<path fill="#754D29" d="M933.6,524.6l-66.3-10.9l-0.2,0.1v53.9l30.8,13.5c0,0,28.8-15.5,30-19.5c0.7-2.3,3.4-10.2,5.6-16.9
							V524.6z"/>
						<polygon fill="#C3996B" points="886.9,606.7 885.6,545.8 820.7,533.7 820.7,593.8 882.7,609.1 						"/>
						<polygon fill="#8A5E3C" points="882.7,609.1 933.6,580 933.6,525.1 882.7,545.6 						"/>
						<polygon fill="#C3996B" points="820.2,533.6 851.7,535.1 887,519.4 867.4,512.7 						"/>
						<polygon fill="#C3996B" points="855.3,534.3 882.7,545.6 933.6,525.1 904.5,516.1 						"/>
					</g>
					<g>
						<polygon fill="#A87D50" points="820,469.3 820,529.7 881.9,545 932.9,515.9 932.9,460.5 866.6,449.6 						"/>
						<path fill="#754D29" d="M932.9,460.5l-66.3-10.9l-0.2,0.1v53.9l30.8,13.5c0,0,28.8-15.5,30.1-19.5c0.7-2.3,3.4-10.2,5.6-16.9
							V460.5z"/>
						<polygon fill="#C3996B" points="886.2,542.6 884.8,481.7 820,469.6 820,529.7 881.9,545 						"/>
						<polygon fill="#8A5E3C" points="881.9,545 932.9,515.9 932.9,461 881.9,481.5 						"/>
						<polygon fill="#C3996B" points="819.5,469.5 851,471 886.3,455.3 866.6,448.6 						"/>
						<polygon fill="#C3996B" points="854.6,470.2 881.9,481.5 932.9,461 903.8,452 						"/>
					</g>
					<g>
						<polygon fill="#A87D50" points="655.6,552.6 655.6,613 717.5,628.3 768.5,599.2 768.5,543.8 702.2,532.9 						"/>
						<path fill="#754D29" d="M768.5,543.8l-66.3-10.9l-0.2,0.1v53.9l30.8,13.5c0,0,28.8-15.5,30-19.5c0.7-2.3,3.4-10.2,5.6-16.9
							V543.8z"/>
						<polygon fill="#C3996B" points="721.8,625.9 720.5,565 655.6,552.9 655.6,613 717.5,628.3 						"/>
						<polygon fill="#8A5E3C" points="717.5,628.3 768.5,599.2 768.5,544.3 717.5,564.8 						"/>
						<polygon fill="#C3996B" points="655.1,552.8 686.6,554.3 721.9,538.6 702.2,531.9 						"/>
						<polygon fill="#C3996B" points="690.2,553.5 717.5,564.8 768.5,544.3 739.4,535.3 						"/>
					</g>
					<g>
						<polygon fill="#A87D50" points="727.2,565.4 727.2,625.9 789.2,641.2 840.2,612 840.2,556.7 773.9,545.8 						"/>
						<path fill="#754D29" d="M840.2,556.7l-66.3-10.9l-0.2,0.1v53.9l30.8,13.5c0,0,28.8-15.5,30-19.5c0.7-2.3,3.4-10.2,5.6-16.9
							V556.7z"/>
						<polygon fill="#C3996B" points="793.4,638.8 792.1,577.9 727.2,565.8 727.2,625.9 789.2,641.2 						"/>
						<polygon fill="#8A5E3C" points="789.2,641.2 840.2,612 840.2,557.1 789.2,577.7 						"/>
						<polygon fill="#C3996B" points="726.8,565.7 758.2,567.1 793.5,551.5 773.9,544.8 						"/>
						<polygon fill="#C3996B" points="761.9,566.4 789.2,577.7 840.2,557.1 811,548.2 						"/>
					</g>
				</g>
			</g>
			<polygon fill="#7D939B" points="576.9,688 568.7,677.8 581.3,673 900.4,749.2 898.9,778.4 891.9,785.2 			"/>
			<g>
				<path fill="#72777B" d="M891.2,737.6c-0.6,7.1-7.2,11.4-14.7,9.5l-39.1-9.8c-7.5-1.9-13-9.2-12.4-16.3l0,0
					c0.6-7.1,7.2-11.4,14.7-9.5l39.1,9.8C886.2,723.2,891.8,730.5,891.2,737.6L891.2,737.6z"/>
				<path fill="#F69321" d="M888.2,739c-0.6,6.9-6.9,11-14.2,9.2l-37.7-9.4c-7.2-1.8-12.6-8.8-12-15.7l0,0c0.6-6.9,6.9-11,14.2-9.2
					l37.7,9.4C883.4,725.1,888.8,732.1,888.2,739L888.2,739z"/>
				<path fill="#BE202E" d="M871.2,722l-27.9-7c-0.2,0.2-0.5,0.4-0.7,0.7c-8.2,8.8-5.7,18.7-3.7,23.7l27.9,7
					C861.4,733.7,867.3,725.6,871.2,722z"/>
			</g>
			<g>
				<path fill="#72777B" d="M644.9,677.4c-0.6,7.1-7.2,11.4-14.7,9.5l-39.1-9.8c-7.5-1.9-13-9.2-12.4-16.3l0,0
					c0.6-7.1,7.2-11.4,14.7-9.5l39.1,9.8C640,663,645.6,670.3,644.9,677.4L644.9,677.4z"/>
				<path fill="#F69321" d="M642,678.8c-0.6,6.9-6.9,11-14.2,9.2l-37.7-9.4c-7.2-1.8-12.6-8.8-12-15.7l0,0c0.6-6.9,6.9-11,14.2-9.2
					l37.7,9.4C637.2,664.9,642.6,671.9,642,678.8L642,678.8z"/>
				<path fill="#BE202E" d="M625,661.8l-27.9-7c-0.2,0.2-0.5,0.4-0.7,0.7c-8.2,8.8-5.7,18.7-3.7,23.7l27.9,7
					C615.1,673.5,621.1,665.4,625,661.8z"/>
			</g>
			<polygon fill="#72777B" points="568.7,677.8 568.7,702.6 892.1,785.7 893.6,756.5 			"/>
			<polygon fill="#90ADBE" points="900.4,749.2 893.6,756.5 892.1,785.7 898.9,778.4 			"/>
			<linearGradient id="SVGID_9_" gradientUnits="userSpaceOnUse" x1="727.7857" y1="299.0713" x2="735.5568" y2="593.3656">
				<stop  offset="0" style="stop-color:#D6DEE0"/>
				<stop  offset="1" style="stop-color:#ABC2CD"/>
				<a:midPointStop  offset="0" style="stop-color:#D6DEE0"/>
				<a:midPointStop  offset="0.5" style="stop-color:#D6DEE0"/>
				<a:midPointStop  offset="1" style="stop-color:#ABC2CD"/>
			</linearGradient>
			<path fill="url(#SVGID_9_)" d="M534.2,312.2l35,343.8l318.6,70.9l35-389.5C730.4,300.5,534.2,312.2,534.2,312.2z M867.7,700.7
				l-278.5-62l-30.6-300.5c0,0,171.5-10.2,339.6,22.1L867.7,700.7z"/>
			<path fill="#1387A6" d="M554.6,351c1,11.7,27.2,288.5,27.2,288.5l7.3-1.7l-30.3-297.7C556.9,340.7,553.9,343,554.6,351z
				 M867.7,700.7c4.6,0.2,5-24,20.3-165.4C903.3,394,901.8,367,898,363.6L867.7,700.7z"/>
			<path fill="#FFFFFF" d="M568.3,433.1l-6.3-2.5c0.3,3.2,0.6,6.4,0.9,9.7l6.3,2.5L568.3,433.1z M570.9,458l-6.5-2.5
				c0.3,3.2,0.6,6.5,0.9,9.7l6.5,2.6L570.9,458z M565.8,408.3l-6.1-2.4c0.3,3.2,0.6,6.4,0.9,9.7l6.2,2.4L565.8,408.3z M573.4,482.8
				l-6.6-2.6c0.3,3.2,0.6,6.5,0.9,9.7l6.7,2.6L573.4,482.8z M578.4,532.4l-7-2.7c0.3,3.3,0.6,6.5,0.9,9.7l7.1,2.8L578.4,532.4z
				 M575.9,507.6l-6.8-2.7c0.3,3.3,0.6,6.5,0.9,9.7l6.9,2.7L575.9,507.6z M563.3,383.5l-5.9-2.3c0.3,3.1,0.6,6.3,0.9,9.7l6,2.3
				L563.3,383.5z M580.8,628.7c0.5,4.8,0.8,8.2,0.9,9.7l1.7,0.7l5.8-1.3l-0.6-6.1L580.8,628.7z M882,541.3l5.1,2
				c0.3-2.6,0.6-5.3,0.9-8c0-0.3,0.1-0.7,0.1-1l-5.3-2.1L882,541.3z M586,606.9l-7.6-3c0.3,3.4,0.6,6.7,0.9,9.7l7.6,3L586,606.9z
				 M583.5,582.1l-7.4-2.9c0.3,3.3,0.6,6.6,0.9,9.7l7.5,2.9L583.5,582.1z M560.8,358.7l-5.7-2.2c0.2,2.5,0.5,5.8,0.9,9.7l5.8,2.2
				L560.8,358.7z M558.9,340.1c-0.9,0.3-1.9,1-2.8,2.3l3.2,1.2L558.9,340.1z M581,557.3l-7.2-2.8c0.3,3.3,0.6,6.6,0.9,9.7l7.3,2.8
				L581,557.3z M875.8,610.4l4.1,1.6c0.3-2.9,0.6-5.9,0.9-9l-4.2-1.7L875.8,610.4z M890.3,449.2l6.1,2.4c0.3-3.1,0.5-6.2,0.8-9.1
				l-6.1-2.4L890.3,449.2z M888.2,472.2l6,2.4c0.3-3.1,0.6-6.1,0.9-9.1l-6.1-2.4L888.2,472.2z M892.3,426.1l5.9,2.3
				c0.2-3.2,0.5-6.2,0.7-9.1l-5.8-2.3L892.3,426.1z M900.2,372.2l-2.9-1.1l-0.8,9.1l4.1,1.6C900.5,377.8,900.4,374.6,900.2,372.2z
				 M886.1,495.2l5.8,2.3c0.3-3.1,0.6-6.1,0.9-9l-5.9-2.3L886.1,495.2z M894.4,403.1l5.4,2.1c0.2-3.3,0.3-6.4,0.4-9.2l-5-2
				L894.4,403.1z M884.1,518.3l5.5,2.2c0.3-3.1,0.6-6.1,0.9-9l-5.7-2.2L884.1,518.3z M873.7,633.4l3.8,1.5c0.3-2.9,0.6-5.9,0.9-9
				l-3.9-1.5L873.7,633.4z M871.7,656.5l3.6,1.4c0.3-2.8,0.6-5.8,0.9-9l-3.7-1.4L871.7,656.5z M869.6,679.5l3.1,1.2
				c0.3-2.7,0.7-5.6,1-9l-3.3-1.3L869.6,679.5z M867.7,700.7c1.2,0,2.1-1.5,3-6.3l-2.4-0.9L867.7,700.7z M877.9,587.4l4.4,1.7
				c0.3-2.9,0.6-5.9,0.9-9l-4.5-1.8L877.9,587.4z M879.9,564.3l4.8,1.9c0.3-2.9,0.6-5.9,1-9l-4.9-1.9L879.9,564.3z"/>
			<polygon fill="#EBEBEB" points="813.5,692.4 867.7,700.7 869.3,693.9 589.1,635.1 581.8,639.5 655.6,657.9 			"/>
			<polygon fill="#686B72" points="813.5,682.2 813.5,692.4 738.7,863.4 570.6,807 567.2,803.1 			"/>
			<polygon fill="#EBEBEB" points="638.6,645.8 567.2,803.1 736.2,857 813.5,682.2 			"/>
			<path fill="#231F20" d="M1136.7,332.6l-11.9,1.6c0,0-4.2,110.9-3.3,120.8c1.4,15.2,64.9-0.9,64.9-0.9S1172.6,391.9,1136.7,332.6z
				"/>
			<path fill="#72777B" d="M1123.8,330.1v6.8c0,0,5.8-1,10.7,0.5c4.9,1.5,30.6,61.2,37.4,82.6c6.8,21.4,7.3,29.6,5.8,33.5
				c-1.5,3.9,5.3,3.5,8.7,0.5c3.4-3,1-13.2-5.8-39.4c-6.8-26.2-36.4-83-41.3-85C1134.5,327.7,1123.8,330.1,1123.8,330.1z"/>
			<path fill="#93999D" d="M1139.3,329.7c-4.9-1.9-15.5,0.5-15.5,0.5v1.8c2.2-0.5,11.6-2,17,3.4c6.2,6.2,41.2,79.4,43.3,108.5
				c0.3,4.3,0.6,8,0.7,11.2c0.6-0.3,1.1-0.7,1.6-1.1c3.4-3,1-13.2-5.8-39.4C1173.8,388.4,1144.2,331.6,1139.3,329.7z"/>
			<path fill="#72777B" d="M1182.6,442.7c0,0,13.4-21.1,19.3-22.2c5.9-1.1,25.5-4,26.7,9.8c1.2,13.8,0,27.1-5.8,29.1
				c-5.8,2-19.5,3-28.9-8.4l-8.7,3C1185.3,453.9,1178.2,445.3,1182.6,442.7z"/>
			<path fill="#93999D" d="M1201,421.4c-0.8,0.2-1.5,0.5-2.2,0.8c-4.1,3.3-9.4,10.5-12.8,15.4c-3.9,7.7-2.2,13.5-1.6,14.9
				c0.1,0.1,0.1,0.1,0.1,0.2c0-0.8,0.2-4.7,4.6-13.2c5.1-9.7,11.9-15.1,11.9-15.1s-6.3,9.7-6.1,16.8c0.2,7,13.8,18.2,20.4,13.8
				c6.6-4.4,6.6-21.4,5.6-27.9C1219.9,420.7,1208.8,419.7,1201,421.4z"/>
			<path fill="#231F20" d="M1149.1,473.5c0.4,2.4-1.2,4.6-3.6,5L1125,482c-2.4,0.4-4.6-1.2-5-3.6l0,0c-0.4-2.4,1.2-4.6,3.6-5
				l20.5-3.4C1146.5,469.5,1148.7,471.1,1149.1,473.5L1149.1,473.5z"/>
			<g  a:adobe-knockout="true">
				<g  a:adobe-knockout="false">
					<g>
						<path fill="#9EAAB2" d="M803.4,703.5l-169-39.3c-0.8-0.2-1.3-1-1.1-1.7l0,0c0.2-0.8,1-1.3,1.8-1.1l0,0l169,39.3
							c0.8,0.2,1.3,1,1.1,1.8l0,0c-0.2,0.7-0.8,1.1-1.4,1.1l0,0C803.6,703.6,803.5,703.6,803.4,703.5L803.4,703.5z"/>
					</g>
					<g>
						<path fill="#81848D" d="M802.4,705l-169-39.3c-0.8-0.2-1.3-1-1.1-1.7l0,0c0.2-0.8,1-1.3,1.8-1.1l0,0l169,39.3
							c0.8,0.2,1.3,1,1.1,1.8l0,0c-0.2,0.7-0.8,1.1-1.4,1.1l0,0C802.7,705,802.5,705,802.4,705L802.4,705z"/>
					</g>
				</g>
				<g  a:adobe-knockout="false">
					<path fill="#9EAAB2" d="M791.5,730l-168.3-41.8c-0.8-0.2-1.3-1-1.1-1.8l0,0c0.2-0.8,1-1.3,1.8-1.1l0,0l168.3,41.8
						c0.8,0.2,1.3,1,1.1,1.8l0,0c-0.2,0.7-0.8,1.1-1.4,1.1l0,0C791.7,730.1,791.6,730.1,791.5,730L791.5,730z"/>
					<path fill="#81848D" d="M790.5,731.5l-168.3-41.8c-0.8-0.2-1.3-1-1.1-1.8l0,0c0.2-0.8,1-1.3,1.8-1.1l0,0l168.3,41.8
						c0.8,0.2,1.3,1,1.1,1.8l0,0c-0.2,0.7-0.8,1.1-1.4,1.1l0,0C790.7,731.5,790.6,731.5,790.5,731.5L790.5,731.5z"/>
				</g>
				<g  a:adobe-knockout="false">
					<path fill="#9EAAB2" d="M779.6,756.5l-167.7-44.2c-0.8-0.2-1.2-1-1-1.8l0,0c0.2-0.8,1-1.2,1.8-1l0,0l167.7,44.2
						c0.8,0.2,1.2,1,1,1.8l0,0c-0.2,0.7-0.8,1.1-1.4,1.1l0,0C779.8,756.6,779.7,756.5,779.6,756.5L779.6,756.5z"/>
					<path fill="#81848D" d="M778.6,757.9l-167.7-44.2c-0.8-0.2-1.2-1-1-1.8l0,0c0.2-0.8,1-1.2,1.8-1l0,0l167.7,44.2
						c0.8,0.2,1.2,1,1,1.8l0,0c-0.2,0.7-0.8,1.1-1.4,1.1l0,0C778.8,758,778.7,758,778.6,757.9L778.6,757.9z"/>
				</g>
				<g  a:adobe-knockout="false">
					<path fill="#9EAAB2" d="M767.7,783l-167-46.7c-0.8-0.2-1.2-1-1-1.8l0,0c0.2-0.8,1-1.2,1.8-1l0,0l167,46.7c0.8,0.2,1.2,1,1,1.8
						l0,0c-0.2,0.7-0.8,1.1-1.5,1.1l0,0C767.9,783,767.8,783,767.7,783L767.7,783z"/>
					<path fill="#81848D" d="M766.7,784.4l-167-46.7c-0.8-0.2-1.2-1-1-1.8l0,0c0.2-0.8,1-1.2,1.8-1l0,0l167,46.7
						c0.8,0.2,1.2,1,1,1.8l0,0c-0.2,0.7-0.8,1.1-1.5,1.1l0,0C766.9,784.5,766.8,784.4,766.7,784.4L766.7,784.4z"/>
				</g>
				<g  a:adobe-knockout="false">
					<path fill="#9EAAB2" d="M755.8,809.5l-166.3-49.2c-0.8-0.2-1.2-1-1-1.8l0,0c0.2-0.8,1-1.2,1.8-1l0,0l166.3,49.2
						c0.8,0.2,1.2,1,1,1.8l0,0c-0.2,0.7-0.8,1.1-1.5,1l0,0C756,809.5,755.9,809.5,755.8,809.5L755.8,809.5z"/>
					<path fill="#81848D" d="M754.7,810.9l-166.3-49.2c-0.8-0.2-1.2-1-1-1.8l0,0c0.2-0.8,1-1.2,1.8-1l0,0l166.3,49.2
						c0.8,0.2,1.2,1,1,1.8l0,0c-0.2,0.7-0.8,1.1-1.5,1l0,0C755,810.9,754.8,810.9,754.7,810.9L754.7,810.9z"/>
				</g>
				<g  a:adobe-knockout="false">
					<g>
						<path fill="#9EAAB2" d="M743.9,836l-165.7-51.6c-0.8-0.2-1.2-1.1-1-1.8l0,0c0.2-0.8,1.1-1.2,1.8-1l0,0l165.7,51.6
							c0.8,0.2,1.2,1.1,1,1.8l0,0c-0.2,0.7-0.8,1.1-1.5,1l0,0C744.1,836,744,836,743.9,836L743.9,836z"/>
					</g>
					<g>
						<path fill="#81848D" d="M742.8,837.3l-165.7-51.6c-0.8-0.2-1.2-1.1-1-1.8l0,0c0.2-0.8,1.1-1.2,1.8-1l0,0l165.7,51.6
							c0.8,0.2,1.2,1.1,1,1.8l0,0c-0.2,0.7-0.8,1.1-1.5,1l0,0C743,837.4,742.9,837.4,742.8,837.3L742.8,837.3z"/>
					</g>
				</g>
			</g>
			<path fill="#BEBDBE" d="M558.7,338.2l1,9.8c12.7-0.6,65-2.2,165.9,5.3c85,6.3,144.7,18.4,171.1,24.6l1.6-17.5
				C730.2,328,558.7,338.2,558.7,338.2z"/>
			<path fill="#436F96" d="M939.7,334.3l176.3-22.6C1116,311.7,1049,329.2,939.7,334.3z"/>
			<path fill="#436F96" d="M716.8,300.8l171.9-11.7C888.7,289.1,754,293.5,716.8,300.8z"/>
			<path fill="#436F96" d="M772.9,304.4l171.9-11.7C944.8,292.7,810.1,297.1,772.9,304.4z"/>
			<path fill="#436F96" d="M846.5,308l171.9-11.7C1018.4,296.4,883.6,300.8,846.5,308z"/>
			<path fill="#436F96" d="M896.7,313.1l171.9-11.7C1068.6,301.5,933.9,305.9,896.7,313.1z"/>
			<path fill="#231F20" d="M1199,565.2c0,0-6.8,1.9-10.7,5.3c-3.9,3.4-2.4,25.7,0,30.1c2.4,4.4,13.6,6.8,20.4,1.9
				C1215.6,597.7,1199,565.2,1199,565.2z"/>
			<path fill="#84807E" d="M1187,573.1c2.2,1.1,5.3,2,9.6,2.2c7.3,0.3,12.6-6.8,15-10.8c-3.6-5.1-13-4-13-4l-0.4,4.7
				c-2.1,0.9-8,3.7-9.9,5.3C1187.8,571,1187.3,572,1187,573.1z"/>
			<g>
				<path fill="#72777B" d="M904,719.6c0,0,10.2,4.4,17.5,1.1c0,0,14.2-35.7,36.1-46.6c21.9-10.9,23.3,20.8,30.2,21.9
					c6.9,1.1,8-0.7,8-0.7s-6.6-43.3-41.9-36.4C927,665.3,913.9,688.7,904,719.6z"/>
				<path fill="#505354" d="M971.8,668.6c-13.1-1.1-32.4,14.6-38.6,29.5c-0.1,0.3-0.2,0.6-0.3,0.9c6.2-9.6,14.6-19.9,24.7-24.9
					c21.9-10.9,23.3,20.8,30.2,21.9c2.3,0.4,3.8,0.4,5,0.3C990.3,688.1,981.8,669.5,971.8,668.6z"/>
			</g>
			<g>
				<path fill="#72777B" d="M1093.8,634.4c0,0,3.8,6.2,10.6,2.9c0,0,13.3-35.7,33.8-46.6c20.5-10.9,21.8,20.8,28.3,21.9
					c6.5,1.1,7.5-0.7,7.5-0.7s-6.1-43.3-39.2-36.4C1109.5,581.9,1103,603.4,1093.8,634.4z"/>
				<path fill="#505354" d="M1151.4,585.2c-12.3-1.1-30.3,14.6-36.1,29.5c-0.1,0.3-0.2,0.6-0.3,0.9c5.8-9.6,13.7-19.9,23.1-24.9
					c20.5-10.9,21.8,20.8,28.3,21.9c2.1,0.4,3.6,0.4,4.7,0.3C1168.7,604.7,1160.8,586.1,1151.4,585.2z"/>
			</g>
			<path fill="#231F20" d="M1201,424.6c0,0-6.3,6.1-7.3,13.4c-1,7.3,2.4,13.8,10.7,17.5c8.3,3.6,12.1,1.2,14.1-7.5
				c1.9-8.7,1.5-18.7-0.7-21.6C1215.6,423.4,1201,424.6,1201,424.6z"/>
			<path fill="#191518" d="M1217.7,426.3c-2.2-2.9-16.8-1.7-16.8-1.7s-6.3,6.1-7.3,13.4c-0.8,5.7,1.2,11,6.1,14.7
				c-1.1-1.8-1.7-3.8-1.7-6.2c0.2-10.2,5.1-17.7,5.1-17.7s8.6-1.8,15.5-0.2C1218.4,427.6,1218.1,426.8,1217.7,426.3z"/>
		</g>
		<path fill="#89BA80" d="M328.4,614.5c-0.3-6.7-6.1-11.9-12.8-11.6c-1,0-1.9,0.2-2.8,0.5c0-0.2,0-0.3,0-0.5
			c0-10.4-8.4-18.7-18.7-18.7c-2,0-3.9,0.3-5.7,0.9c-4.2-5.8-11-9.6-18.8-9.6c-8.4,0-15.8,4.5-19.8,11.2c-1.3-0.7-2.7-1.1-4.3-1.1
			c-3.2,0-6,1.7-7.5,4.3c-2-0.7-4.1-1.1-6.2-1.1c-10.3,0-18.6,8.3-18.7,18.5c-0.8-0.2-1.6-0.2-2.4-0.2c-5.6,0.3-9.9,5.1-9.7,10.7
			c0.3,5.6,5.1,9.9,10.7,9.7c0.3,0,0.7-0.1,1-0.1h19.1h10.4h73.5c0.4,0,0.8,0,1.3,0C323.6,627,328.8,621.3,328.4,614.5z"/>
	</g>
</g>
</svg>
